<?xml version="1.0" encoding="UTF-8"?>
<svg version="1.1" xmlns="http://www.w3.org/2000/svg" width="500" height="500">
<path d="M0 0 C3.96220871 3.3961789 4.49510792 4.90778181 5 10.125 C4.88735068 14.43785966 3.45117939 16.95279071 0.625 20.25 C-2.36312362 22.59781141 -5.59411188 22.66825081 -9.34375 22.5703125 C-12.72929158 22.03643864 -14.81680448 20.44273902 -17.375 18.25 C-19.93697148 14.06486166 -20.07550476 10.03393492 -19.375 5.25 C-14.91311346 -2.23959526 -7.66114025 -3.97244309 0 0 Z " fill="#EFEFEF" transform="translate(125.375,239.75)"/>
<path d="M0 0 C2.50876941 1.70237924 2.96591641 2.89044559 3.875 5.8125 C4.02817911 9.71856732 3.05994354 11.71934918 1 15 C-1.95664519 16.4783226 -4.74229737 16.06032783 -8 16 C-8 16.99 -8 17.98 -8 19 C-7.01 19 -6.02 19 -5 19 C-5 20.32 -5 21.64 -5 23 C-7.64 23 -10.28 23 -13 23 C-13 21.68 -13 20.36 -13 19 C-12.34 19 -11.68 19 -11 19 C-11 13.72 -11 8.44 -11 3 C-11.66 3 -12.32 3 -13 3 C-13 2.01 -13 1.02 -13 0 C-12.05125 0.020625 -11.1025 0.04125 -10.125 0.0625 C-0.44773791 -0.13104524 -0.44773791 -0.13104524 0 0 Z M-8 4 C-8.16053815 5.87321948 -8.16053815 5.87321948 -8.125 8 C-8.12757813 8.721875 -8.13015625 9.44375 -8.1328125 10.1875 C-8.19695276 12.02089415 -8.19695276 12.02089415 -7 13 C-4.54207971 13.33343551 -4.54207971 13.33343551 -2 13 C0.14915785 9.77626323 0.38286803 8.73296326 0 5 C-1.83265325 2.73160017 -1.83265325 2.73160017 -4.5625 2.8125 C-6.94689723 2.72996677 -6.94689723 2.72996677 -8 4 Z " fill="#D3D3D3" transform="translate(292,233)"/>
<path d="M0 0 C2.29141286 -0.05384521 4.58318188 -0.09272087 6.875 -0.125 C8.78925781 -0.15980469 8.78925781 -0.15980469 10.7421875 -0.1953125 C14 0 14 0 16 2 C16.1953125 4.3828125 16.1953125 4.3828125 16.125 7.125 C16.10695313 8.03507813 16.08890625 8.94515625 16.0703125 9.8828125 C16.04710937 10.58148438 16.02390625 11.28015625 16 12 C16.66 12 17.32 12 18 12 C18 13.32 18 14.64 18 16 C15.36 16 12.72 16 10 16 C10.165 15.505 10.33 15.01 10.5 14.5 C11.20688818 10.96555911 11.06005155 7.60309299 11 4 C9.68 4 8.36 4 7 4 C6.67 6.64 6.34 9.28 6 12 C6.66 12 7.32 12 8 12 C8 13.32 8 14.64 8 16 C5.36 16 2.72 16 0 16 C0.66 11.71 1.32 7.42 2 3 C1.34 3 0.68 3 0 3 C0 2.01 0 1.02 0 0 Z " fill="#B2B2B2" transform="translate(385,233)"/>
<path d="M0 0 C2.29109597 -0.08075665 4.58299267 -0.13907731 6.875 -0.1875 C8.78925781 -0.23970703 8.78925781 -0.23970703 10.7421875 -0.29296875 C11.81726563 -0.19628906 12.89234375 -0.09960938 14 0 C16.00378805 3.00568207 16.29045938 4.00515765 16.5625 7.4375 C16.80800744 10.3986204 17.20970486 13.13273084 18 16 C15.36 16 12.72 16 10 16 C10 14.68 10 13.36 10 12 C10.66 12 11.32 12 12 12 C11.67 9.36 11.34 6.72 11 4 C9.68 4 8.36 4 7 4 C6.67 6.97 6.34 9.94 6 13 C6.66 13 7.32 13 8 13 C8 13.99 8 14.98 8 16 C5.36 16 2.72 16 0 16 C0.66 11.71 1.32 7.42 2 3 C1.34 3 0.68 3 0 3 C0 2.01 0 1.02 0 0 Z " fill="#B8B8B8" transform="translate(204,233)"/>
<path d="M0 0 C0.99 0 1.98 0 3 0 C3 18.81 3 37.62 3 57 C2.01 57 1.02 57 0 57 C0 38.19 0 19.38 0 0 Z " fill="#DCDCDC" transform="translate(160,221)"/>
<path d="M0 0 C2.375 1.625 2.375 1.625 4 4 C4.59172793 8.06812955 4.37276489 10.27000208 2.5 13.9375 C-0.52980415 16.43708842 -2.24708333 16.74273321 -6.09375 16.484375 C-8 16 -8 16 -10.5 13.875 C-12.23895776 10.54199763 -12.47353317 8.70934317 -12 5 C-11.13574999 2.40724998 -10.43273517 1.32455137 -8.25 -0.3125 C-5.11082448 -1.27169252 -3.13830576 -0.91533918 0 0 Z M-8 4 C-8.25003964 7.45821402 -8.25003964 7.45821402 -8 11 C-7.34 11.66 -6.68 12.32 -6 13 C-2.69316534 12.71016731 -2.69316534 12.71016731 0 11 C0.24733137 6.85723125 0.24733137 6.85723125 -1 3 C-4.80621045 2.56152641 -4.80621045 2.56152641 -8 4 Z " fill="#B5B5B5" transform="translate(379,233)"/>
<path d="M0 0 C3 2 3 2 3.65234375 3.98828125 C4.14416667 7.9969749 4.31195182 10.33540698 2.5625 14.0625 C-0.5090722 16.38490825 -2.30995379 16.74166364 -6.09375 16.48046875 C-8 16 -8 16 -10.5 13.9375 C-12.37276489 10.27000208 -12.59172793 8.06812955 -12 4 C-8.21505764 -0.79426032 -5.84594765 -1.31235559 0 0 Z M-8 4 C-8.25003964 7.45821402 -8.25003964 7.45821402 -8 11 C-7.34 11.66 -6.68 12.32 -6 13 C-2.69316534 12.71016731 -2.69316534 12.71016731 0 11 C0.16666667 7.5 0.16666667 7.5 0 4 C-1.11836224 2.65595225 -1.11836224 2.65595225 -4 2.875 C-6.88163776 2.65595225 -6.88163776 2.65595225 -8 4 Z " fill="#BEBEBE" transform="translate(259,233)"/>
<path d="M0 0 C1.65 0 3.3 0 5 0 C5.33 4.29 5.66 8.58 6 13 C7.32 12.67 8.64 12.34 10 12 C10.33 9.03 10.66 6.06 11 3 C10.34 3 9.68 3 9 3 C9 2.01 9 1.02 9 0 C10.98 0 12.96 0 15 0 C15.06058594 0.81984375 15.12117187 1.6396875 15.18359375 2.484375 C15.26738281 3.56203125 15.35117188 4.6396875 15.4375 5.75 C15.51871094 6.81734375 15.59992188 7.8846875 15.68359375 8.984375 C15.94090773 11.43679962 16.31812218 13.63921291 17 16 C14.87527424 16.05386629 12.75016348 16.09273071 10.625 16.125 C9.44164062 16.14820313 8.25828125 16.17140625 7.0390625 16.1953125 C4 16 4 16 2 14 C1.8046875 11.3984375 1.8046875 11.3984375 1.875 8.375 C1.89304688 7.37210938 1.91109375 6.36921875 1.9296875 5.3359375 C1.95289063 4.56507813 1.97609375 3.79421875 2 3 C1.34 3 0.68 3 0 3 C0 2.01 0 1.02 0 0 Z " fill="#BDBDBD" transform="translate(184,233)"/>
<path d="M0 0 C2.56326338 1.67937946 2.95735914 2.8629401 3.875 5.8125 C4.02817911 9.71856732 3.05994354 11.71934918 1 15 C-2.09173752 16.54586876 -4.59429552 16.29359521 -8 16 C-11.00342896 13.94502229 -11.83287356 12.52366286 -12.9375 9.0625 C-13.01327396 5.34957588 -12.3135507 3.87199397 -10 1 C-6.62152517 -1.56298091 -3.97719014 -1.10007387 0 0 Z M-7 3 C-9.35014158 5.837578 -9.35014158 5.837578 -8.6875 9.125 C-8.29355679 11.88086422 -8.29355679 11.88086422 -7 13 C-4.54207971 13.33343551 -4.54207971 13.33343551 -2 13 C0.14915785 9.77626323 0.38286803 8.73296326 0 5 C-1.82915641 2.76154985 -1.82915641 2.76154985 -4.5 2.6875 C-5.325 2.790625 -6.15 2.89375 -7 3 Z " fill="#C2C2C2" transform="translate(310,233)"/>
<path d="M0 0 C1 1 1 1 1.09765625 3.28515625 C1.08605469 4.20167969 1.07445312 5.11820313 1.0625 6.0625 C1.05347656 6.98160156 1.04445313 7.90070313 1.03515625 8.84765625 C1.02355469 9.55792969 1.01195312 10.26820313 1 11 C1.66 11 2.32 11 3 11 C3 12.32 3 13.64 3 15 C1.06318839 15.08107583 -0.8745934 15.13922475 -2.8125 15.1875 C-3.89144531 15.22230469 -4.97039062 15.25710937 -6.08203125 15.29296875 C-9 15 -9 15 -10.89453125 13.6484375 C-12 12 -12 12 -11.875 9.4375 C-11 7 -11 7 -8 5 C-4.8125 4.875 -4.8125 4.875 -2 5 C-2.33 4.34 -2.66 3.68 -3 3 C-5.31 3 -7.62 3 -10 3 C-10.33 2.01 -10.66 1.02 -11 0 C-6.66922719 -2.29276208 -4.44852067 -1.92095211 0 0 Z M-7 8 C-7.33 9.32 -7.66 10.64 -8 12 C-6.35 12 -4.7 12 -3 12 C-2.67 10.68 -2.34 9.36 -2 8 C-3.65 8 -5.3 8 -7 8 Z " fill="#A9A9A9" transform="translate(341,234)"/>
<path d="M0 0 C0.66 0.33 1.32 0.66 2 1 C2 2.32 2 3.64 2 5 C0.68 5 -0.64 5 -2 5 C-2 4.34 -2 3.68 -2 3 C-3.65 3 -5.3 3 -7 3 C-7 3.66 -7 4.32 -7 5 C-5.88625 5.28875 -4.7725 5.5775 -3.625 5.875 C0 7 0 7 2 9 C1.75 12.0625 1.75 12.0625 1 15 C-1.7798816 16.3899408 -3.9186326 16.18488204 -7 16 C-9.375 15 -9.375 15 -11 14 C-11 13.01 -11 12.02 -11 11 C-7.97580475 11.58803797 -4.98241547 12.22678118 -2 13 C-2 12.01 -2 11.02 -2 10 C-3.134375 9.690625 -4.26875 9.38125 -5.4375 9.0625 C-9 8 -9 8 -10 7 C-10.3125 4.625 -10.3125 4.625 -10 2 C-6.87179865 -1.6094631 -4.3973472 -1.14713405 0 0 Z " fill="#BCBCBC" transform="translate(180,233)"/>
<path d="M0 0 C0 1.32 0 2.64 0 4 C-2.97 3.67 -5.94 3.34 -9 3 C-10.01540112 7.10223585 -10.01540112 7.10223585 -9 11 C-5.39007621 10.34414811 -5.39007621 10.34414811 -2 9 C-1.34 9.33 -0.68 9.66 0 10 C-1.875 13.875 -1.875 13.875 -3 15 C-6.78299385 15.35688621 -9.15412807 15.52053657 -12.4375 13.5 C-14.63407488 9.9854802 -14.69716596 7.04190262 -14 3 C-10.59193629 -3.32926117 -5.94539678 -1.98179893 0 0 Z " fill="#C6C6C6" transform="translate(245,234)"/>
<path d="M0 0 C3.96 0 7.92 0 12 0 C12 1.32 12 2.64 12 4 C10.35 4 8.7 4 7 4 C6.67 6.97 6.34 9.94 6 13 C6.99 13 7.98 13 9 13 C9 13.99 9 14.98 9 16 C6.03 16 3.06 16 0 16 C0 15.01 0 14.02 0 13 C0.66 13 1.32 13 2 13 C2 9.7 2 6.4 2 3 C1.34 3 0.68 3 0 3 C0 2.01 0 1.02 0 0 Z " fill="#BDBDBD" transform="translate(265,233)"/>
<path d="M0 0 C3.96 0 7.92 0 12 0 C11.67 1.32 11.34 2.64 11 4 C9.68 4 8.36 4 7 4 C6.34 6.64 5.68 9.28 5 12 C5.99 12 6.98 12 8 12 C8 13.32 8 14.64 8 16 C5.36 16 2.72 16 0 16 C0 14.68 0 13.36 0 12 C0.66 12 1.32 12 2 12 C2 9.03 2 6.06 2 3 C1.34 3 0.68 3 0 3 C0 2.01 0 1.02 0 0 Z " fill="#C4C4C4" transform="translate(316,233)"/>
<path d="M0 0 C0 1.65 0 3.3 0 5 C0.99 5 1.98 5 3 5 C3 5.99 3 6.98 3 8 C1.68 8 0.36 8 -1 8 C-0.67 10.97 -0.34 13.94 0 17 C1.32 17.33 2.64 17.66 4 18 C4 18.99 4 19.98 4 21 C1.125 21.125 1.125 21.125 -2 21 C-4 19 -4 19 -4.1953125 16.3984375 C-4.17210937 15.40070313 -4.14890625 14.40296875 -4.125 13.375 C-4.10695313 12.37210938 -4.08890625 11.36921875 -4.0703125 10.3359375 C-4.04710937 9.56507813 -4.02390625 8.79421875 -4 8 C-4.66 8 -5.32 8 -6 8 C-6 7.01 -6 6.02 -6 5 C-5.34 5 -4.68 5 -4 5 C-4 3.68 -4 2.36 -4 1 C-2 0 -2 0 0 0 Z " fill="#BFBFBF" transform="translate(352,228)"/>
<path d="M0 0 C2.50876941 1.70237924 2.96591641 2.89044559 3.875 5.8125 C4.02817911 9.71856732 3.05994354 11.71934918 1 15 C-1.95664519 16.4783226 -4.74229737 16.06032783 -8 16 C-6 13 -6 13 -3.875 12.3125 C-3.25625 12.209375 -2.6375 12.10625 -2 12 C-1.67 9.69 -1.34 7.38 -1 5 C-2.98 4.01 -4.96 3.02 -7 2 C-7 1.34 -7 0.68 -7 0 C-4.26634878 -1.36682561 -2.89333621 -0.84683011 0 0 Z " fill="#BDBDBD" transform="translate(292,233)"/>
<path d="M0 0 C2.97 0.495 2.97 0.495 6 1 C5.67 4.3 5.34 7.6 5 11 C5.66 11 6.32 11 7 11 C7 12.32 7 13.64 7 15 C4.36 15 1.72 15 -1 15 C-0.83628906 14.45859375 -0.67257812 13.9171875 -0.50390625 13.359375 C0.08590587 10.59777407 0.09609308 8.07181861 0.0625 5.25 C0.05347656 4.26515625 0.04445313 3.2803125 0.03515625 2.265625 C0.02355469 1.51796875 0.01195312 0.7703125 0 0 Z " fill="#B8B8B8" transform="translate(386,234)"/>
<path d="M0 0 C5.94 0 11.88 0 18 0 C18 1.32 18 2.64 18 4 C12.06 4 6.12 4 0 4 C0 2.68 0 1.36 0 0 Z " fill="#A5A5A5" transform="translate(135,248)"/>
<path d="M0 0 C1.98 0 3.96 0 6 0 C6.06058594 0.81984375 6.12117188 1.6396875 6.18359375 2.484375 C6.26738281 3.56203125 6.35117187 4.6396875 6.4375 5.75 C6.51871094 6.81734375 6.59992188 7.8846875 6.68359375 8.984375 C6.94090773 11.43679962 7.31812218 13.63921291 8 16 C5.36 16 2.72 16 0 16 C0.33 14.68 0.66 13.36 1 12 C1.66 12 2.32 12 3 12 C3 9.03 3 6.06 3 3 C2.01 3 1.02 3 0 3 C0 2.01 0 1.02 0 0 Z " fill="#C7C7C7" transform="translate(357,233)"/>
<path d="M0 0 C5.94 0 11.88 0 18 0 C18 1.32 18 2.64 18 4 C12.06 4 6.12 4 0 4 C0 2.68 0 1.36 0 0 Z " fill="#A8A8A8" transform="translate(84,249)"/>
<path d="M0 0 C0.33 2.64 0.66 5.28 1 8 C4.37817425 8.84454356 6.67465243 9.10844919 10 8 C9.125 11.875 9.125 11.875 8 13 C5.07192466 13.28800741 2.85002788 13.48146102 0 13 C-2.5 10.9375 -2.5 10.9375 -4 8 C-4.25 4.1875 -4.25 4.1875 -4 1 C-1 0 -1 0 0 0 Z " fill="#C1C1C1" transform="translate(251,236)"/>
<path d="M0 0 C0.99 0.33 1.98 0.66 3 1 C0.90009145 4.78925806 -1.44665396 7.74388723 -4.5 10.8125 C-5.2734375 11.60269531 -6.046875 12.39289063 -6.84375 13.20703125 C-9 15 -9 15 -12 15 C-11.75 12.625 -11.75 12.625 -11 10 C-8.9375 8.6875 -8.9375 8.6875 -7 8 C-7 7.34 -7 6.68 -7 6 C-5.57421875 4.45703125 -5.57421875 4.45703125 -3.6875 2.8125 C-3.07261719 2.26207031 -2.45773438 1.71164062 -1.82421875 1.14453125 C-1.22222656 0.76683594 -0.62023437 0.38914062 0 0 Z " fill="#ABABAB" transform="translate(105,259)"/>
<path d="M0 0 C0.99 0.33 1.98 0.66 3 1 C1.41507527 4.83247336 -1.03116614 7.33086291 -3.9375 10.25 C-4.81277344 11.14203125 -5.68804687 12.0340625 -6.58984375 12.953125 C-9 15 -9 15 -12 15 C-11.58685438 10.55073948 -8.49538473 8.15899896 -5.4375 5.25 C-4.91736328 4.74339844 -4.39722656 4.23679688 -3.86132812 3.71484375 C-2.58089916 2.46965595 -1.29132446 1.23388498 0 0 Z " fill="#B7B7B7" transform="translate(142,226)"/>
<path d="M0 0 C4.231504 0.50422127 6.31530916 2.88209965 9.25 5.8125 C10.58804688 7.12154297 10.58804688 7.12154297 11.953125 8.45703125 C14 11 14 11 14 15 C10.16752664 13.41507527 7.66913709 10.96883386 4.75 8.0625 C3.85796875 7.18722656 2.9659375 6.31195313 2.046875 5.41015625 C0 3 0 3 0 0 Z " fill="#BABABA" transform="translate(130,258)"/>
<path d="M0 0 C1.87824891 1.87824891 1.39102397 5.03935276 1.5625 7.5625 C1.64628906 8.76003906 1.73007812 9.95757812 1.81640625 11.19140625 C1.87699219 12.11824219 1.93757813 13.04507813 2 14 C0.68 13.67 -0.64 13.34 -2 13 C-1.67 11.02 -1.34 9.04 -1 7 C-1.66 6.67 -2.32 6.34 -3 6 C-3 5.01 -3 4.02 -3 3 C-5.31 3 -7.62 3 -10 3 C-10.33 2.01 -10.66 1.02 -11 0 C-6.66922719 -2.29276208 -4.44852067 -1.92095211 0 0 Z " fill="#BDBDBD" transform="translate(341,234)"/>
<path d="M0 0 C4.55193954 3.79777205 9.00343222 7.61352317 13 12 C13 12.99 13 13.98 13 15 C8.55073948 14.58685438 6.15899896 11.49538473 3.25 8.4375 C2.74339844 7.91736328 2.23679687 7.39722656 1.71484375 6.86132812 C0.46965595 5.58089916 -0.76611502 4.29132446 -2 3 C-1.34 2.01 -0.68 1.02 0 0 Z " fill="#BCBCBC" transform="translate(94,227)"/>
<path d="M0 0 C0.66 0.33 1.32 0.66 2 1 C1.67 1.99 1.34 2.98 1 4 C0.96045766 6.33299825 0.95598268 8.66708189 1 11 C2.98 11.66 4.96 12.32 7 13 C6.67 13.66 6.34 14.32 6 15 C-0.42210386 15.48468708 -0.42210386 15.48468708 -2.9375 13.375 C-4.61809913 9.61836666 -4.5767583 6.52428979 -3.125 2.6875 C-2 1 -2 1 0 0 Z " fill="#C8C8C8" transform="translate(371,233)"/>
<path d="M0 0 C1.32 0 2.64 0 4 0 C4 0.66 4 1.32 4 2 C3.01 2.33 2.02 2.66 1 3 C0.67 3.66 0.34 4.32 0 5 C2.31 5 4.62 5 7 5 C7.33 5.99 7.66 6.98 8 8 C6.68 8 5.36 8 4 8 C4 8.66 4 9.32 4 10 C5.32 10.33 6.64 10.66 8 11 C4.59437148 11.77842938 1.49234244 12.09978121 -2 12 C-2.17835515 7.45194365 -1.99785435 4.1205746 0 0 Z M0 7 C0 8.32 0 9.64 0 11 C0.66 11 1.32 11 2 11 C2 9.68 2 8.36 2 7 C1.34 7 0.68 7 0 7 Z " fill="#707070" transform="translate(277,262)"/>
<path d="M0 0 C0.66 0.33 1.32 0.66 2 1 C2 2.32 2 3.64 2 5 C2.33 3.35 2.66 1.7 3 0 C3.721875 0.185625 4.44375 0.37125 5.1875 0.5625 C8.12826973 1.01995307 10.14103058 0.73516357 13 0 C13 0.66 13 1.32 13 2 C12.01 2 11.02 2 10 2 C9.67 2.99 9.34 3.98 9 5 C10.32 5.33 11.64 5.66 13 6 C8.23969468 7.00216954 3.87008621 7 -1 7 C-1.04254356 5.00045254 -1.04080783 2.99958364 -1 1 C-0.67 0.67 -0.34 0.34 0 0 Z M5 2 C5.66 2.66 6.32 3.32 7 4 C7 3.34 7 2.68 7 2 C6.34 2 5.68 2 5 2 Z " fill="#767676" transform="translate(182,267)"/>
<path d="M0 0 C0.66 0 1.32 0 2 0 C2 6.6 2 13.2 2 20 C1.01 20 0.02 20 -1 20 C-1.02888514 16.85418577 -1.04675923 13.70840531 -1.0625 10.5625 C-1.07087891 9.66466797 -1.07925781 8.76683594 -1.08789062 7.84179688 C-1.09111328 6.98779297 -1.09433594 6.13378906 -1.09765625 5.25390625 C-1.10551147 4.06776733 -1.10551147 4.06776733 -1.11352539 2.85766602 C-1 1 -1 1 0 0 Z " fill="#D2D2D2" transform="translate(117,216)"/>
<path d="M0 0 C0.99 0 1.98 0 3 0 C3 6.27 3 12.54 3 19 C2.01 19 1.02 19 0 19 C0 12.73 0 6.46 0 0 Z " fill="#DADADA" transform="translate(116,264)"/>
<path d="M0 0 C1.45792884 -0.05399736 2.91642712 -0.09279177 4.375 -0.125 C5.18710938 -0.14820313 5.99921875 -0.17140625 6.8359375 -0.1953125 C9 0 9 0 11 2 C11.3125 5 11.3125 5 11 8 C7.91111478 10.05925681 7.29064073 10.2390374 3.8125 10.125 C1.9253125 10.063125 1.9253125 10.063125 0 10 C0.66 9.67 1.32 9.34 2 9 C2 6.36 2 3.72 2 1 C1.34 0.67 0.68 0.34 0 0 Z M4 1 C4 3.64 4 6.28 4 9 C5.32 8.67 6.64 8.34 8 8 C9.00217064 4.41672247 9.00217064 4.41672247 8 1 C6.68 1 5.36 1 4 1 Z " fill="#8A8A8A" transform="translate(169,264)"/>
<path d="M0 0 C0 1.32 0 2.64 0 4 C-0.93972656 3.85691406 -0.93972656 3.85691406 -1.8984375 3.7109375 C-2.71570313 3.60007813 -3.53296875 3.48921875 -4.375 3.375 C-5.18710938 3.25898438 -5.99921875 3.14296875 -6.8359375 3.0234375 C-7.55007812 3.01570312 -8.26421875 3.00796875 -9 3 C-9.66 3.66 -10.32 4.32 -11 5 C-11.99 5 -12.98 5 -14 5 C-12.55369928 0.42004773 -12.55369928 0.42004773 -10.1875 -1.375 C-6.47891676 -2.43459521 -3.56470613 -1.18823538 0 0 Z " fill="#BBBBBB" transform="translate(245,234)"/>
<path d="M0 0 C0.2475 1.258125 0.495 2.51625 0.75 3.8125 C1.48837994 6.83557727 1.79382006 7.8059483 4.125 10 C4.74375 10.33 5.3625 10.66 6 11 C3.69 11 1.38 11 -1 11 C-4.05108798 5.63008515 -4.05108798 5.63008515 -3.8125 2.6875 C-2.92561181 0.84550145 -2.17338874 0 0 0 Z " fill="#D8D8D8" transform="translate(301,237)"/>
<path d="M0 0 C1.65 0 3.3 0 5 0 C5.08153933 1.58246707 5.13943557 3.16616273 5.1875 4.75 C5.22230469 5.63171875 5.25710937 6.5134375 5.29296875 7.421875 C5 10 5 10 2 14 C2 10.37 2 6.74 2 3 C1.34 3 0.68 3 0 3 C0 2.01 0 1.02 0 0 Z " fill="#E4E4E4" transform="translate(184,233)"/>
<path d="M0 0 C1.65 0 3.3 0 5 0 C5.33 0.99 5.66 1.98 6 3 C6.33 2.01 6.66 1.02 7 0 C8.32 0.33 9.64 0.66 11 1 C10.505 1.7425 10.01 2.485 9.5 3.25 C7.68076525 6.06318188 7.68076525 6.06318188 8 10 C6.68 9.67 5.36 9.34 4 9 C3.896875 8.2575 3.79375 7.515 3.6875 6.75 C2.95746496 3.82985982 1.93210602 2.26812446 0 0 Z " fill="#8E8E8E" transform="translate(224,264)"/>
<path d="M0 0 C0.99 0 1.98 0 3 0 C3 1.65 3 3.3 3 5 C3.66 5 4.32 5 5 5 C4.67 3.35 4.34 1.7 4 0 C4.99 0 5.98 0 7 0 C7.38133299 1.9914056 7.71325582 3.99279077 8 6 C7 7 7 7 3.9375 7.0625 C2.968125 7.041875 1.99875 7.02125 1 7 C0.67 4.69 0.34 2.38 0 0 Z " fill="#747474" transform="translate(242,267)"/>
<path d="M0 0 C1.65 0 3.3 0 5 0 C4.01 0.495 4.01 0.495 3 1 C3 3.31 3 5.62 3 8 C4.65 7.67 6.3 7.34 8 7 C7.67 7.99 7.34 8.98 7 10 C4.36 10 1.72 10 -1 10 C-0.34 9.67 0.32 9.34 1 9 C0.67 6.03 0.34 3.06 0 0 Z " fill="#828282" transform="translate(263,264)"/>
<path d="M0 0 C5.75 0.875 5.75 0.875 8 2 C8 3.32 8 4.64 8 6 C6.68 6 5.36 6 4 6 C4 5.34 4 4.68 4 4 C2.68 4 1.36 4 0 4 C0 2.68 0 1.36 0 0 Z " fill="#A0A0A0" transform="translate(174,232)"/>
<path d="M0 0 C3.96 0 7.92 0 12 0 C12 1.32 12 2.64 12 4 C8.1936543 3.32829194 4.64793184 2.27253436 1 1 C0.67 1.66 0.34 2.32 0 3 C0 2.01 0 1.02 0 0 Z " fill="#A7A7A7" transform="translate(265,233)"/>
<path d="M0 0 C1.65 0.33 3.3 0.66 5 1 C5.625 2.875 5.625 2.875 6 5 C5.34 5.66 4.68 6.32 4 7 C1.375 6.625 1.375 6.625 -1 6 C-1.33 5.01 -1.66 4.02 -2 3 C-1.34 2.01 -0.68 1.02 0 0 Z M1 1 C0.67 1.99 0.34 2.98 0 4 C0.33 4.66 0.66 5.32 1 6 C1.99 5.67 2.98 5.34 4 5 C3.34 3.68 2.68 2.36 2 1 C1.67 1 1.34 1 1 1 Z " fill="#7A7A7A" transform="translate(197,267)"/>
<path d="M0 0 C1.32 0 2.64 0 4 0 C4.33 0.99 4.66 1.98 5 3 C3.68 3 2.36 3 1 3 C1 3.66 1 4.32 1 5 C2.32 5.33 3.64 5.66 5 6 C3.34385343 6.38218767 1.67542976 6.71395102 0 7 C-1 6 -1 6 -1.125 3.5 C-1 1 -1 1 0 0 Z " fill="#6B6B6B" transform="translate(211,267)"/>
<path d="M0 0 C1.67542976 0.28604898 3.34385343 0.61781233 5 1 C5 2.65 5 4.3 5 6 C2.625 6.625 2.625 6.625 0 7 C-0.66 6.34 -1.32 5.68 -2 5 C-1.46428571 1.46428571 -1.46428571 1.46428571 0 0 Z M1 1 C0.67 2.32 0.34 3.64 0 5 C0.99 5.33 1.98 5.66 3 6 C2.67 4.35 2.34 2.7 2 1 C1.67 1 1.34 1 1 1 Z " fill="#7A7A7A" transform="translate(237,267)"/>
<path d="M0 0 C0.99 0 1.98 0 3 0 C2.625 2.4375 2.625 2.4375 2 5 C-0.95664519 6.4783226 -3.74229737 6.06032783 -7 6 C-4.7629196 2.6443794 -4.57482962 2.80721959 -1 2 C-0.67 1.34 -0.34 0.68 0 0 Z " fill="#B6B6B6" transform="translate(291,243)"/>
<path d="M0 0 C2.31 0 4.62 0 7 0 C6.01 2.31 5.02 4.62 4 7 C3.34 7 2.68 7 2 7 C1.34 4.69 0.68 2.38 0 0 Z " fill="#6C6C6C" transform="translate(203,267)"/>
<path d="M0 0 C0.66 0.99 1.32 1.98 2 3 C3.32520503 3.68268138 4.65812182 4.3507041 6 5 C6.33 5.66 6.66 6.32 7 7 C1.52173913 7.36521739 1.52173913 7.36521739 -0.875 5.6875 C-2 4 -2 4 -2 1 C-1.34 0.67 -0.68 0.34 0 0 Z " fill="#B8B8B8" transform="translate(331,242)"/>
<path d="M0 0 C0.66 0 1.32 0 2 0 C2.33 3.3 2.66 6.6 3 10 C1.68 9.67 0.36 9.34 -1 9 C-0.67 7.02 -0.34 5.04 0 3 C-0.66 2.67 -1.32 2.34 -2 2 C-1.34 2 -0.68 2 0 2 C0 1.34 0 0.68 0 0 Z " fill="#F8F8F8" transform="translate(340,238)"/>
<path d="M0 0 C3 1 3 1 6 3 C5.071875 3.185625 5.071875 3.185625 4.125 3.375 C1.80879168 3.87197356 1.80879168 3.87197356 0 6 C-0.99 6 -1.98 6 -3 6 C-1.125 1.125 -1.125 1.125 0 0 Z " fill="#A1A1A1" transform="translate(234,233)"/>
<path d="M0 0 C0.66 0 1.32 0 2 0 C2 0.66 2 1.32 2 2 C3.32 2.33 4.64 2.66 6 3 C5.071875 3.185625 5.071875 3.185625 4.125 3.375 C1.80879168 3.87197356 1.80879168 3.87197356 0 6 C-0.99 5.67 -1.98 5.34 -3 5 C-1.125 1.125 -1.125 1.125 0 0 Z " fill="#9B9B9B" transform="translate(301,233)"/>
<path d="M0 0 C1.32 0 2.64 0 4 0 C4 0.66 4 1.32 4 2 C3.34 2 2.68 2 2 2 C2.33 3.65 2.66 5.3 3 7 C1.68 6.67 0.36 6.34 -1 6 C-1.042721 4.33388095 -1.04063832 2.66617115 -1 1 C-0.67 0.67 -0.34 0.34 0 0 Z " fill="#777777" transform="translate(251,267)"/>
<path d="M0 0 C1.32 0 2.64 0 4 0 C4 0.66 4 1.32 4 2 C3.34 2 2.68 2 2 2 C2.33 3.65 2.66 5.3 3 7 C1.68 6.67 0.36 6.34 -1 6 C-1.042721 4.33388095 -1.04063832 2.66617115 -1 1 C-0.67 0.67 -0.34 0.34 0 0 Z " fill="#787878" transform="translate(217,267)"/>
<path d="M0 0 C0 1.98 0 3.96 0 6 C-0.66 6 -1.32 6 -2 6 C-2.33 6.66 -2.66 7.32 -3 8 C-3.33 6.02 -3.66 4.04 -4 2 C-1 0 -1 0 0 0 Z " fill="#C9C9C9" transform="translate(301,237)"/>
<path d="M0 0 C2.97 0.495 2.97 0.495 6 1 C5.67 1.99 5.34 2.98 5 4 C3.35 4 1.7 4 0 4 C-0.33 3.34 -0.66 2.68 -1 2 C-0.67 1.34 -0.34 0.68 0 0 Z " fill="#A8A8A8" transform="translate(373,232)"/>
<path d="M0 0 C1.32 0 2.64 0 4 0 C4 0.99 4 1.98 4 3 C5.32 3.33 6.64 3.66 8 4 C2.25 4.125 2.25 4.125 0 3 C0 2.01 0 1.02 0 0 Z " fill="#C1C1C1" transform="translate(169,244)"/>
<path d="M0 0 C0.66 0.33 1.32 0.66 2 1 C2 2.32 2 3.64 2 5 C2.66 5.33 3.32 5.66 4 6 C2.35 6.33 0.7 6.66 -1 7 C-1.04254356 5.00045254 -1.04080783 2.99958364 -1 1 C-0.67 0.67 -0.34 0.34 0 0 Z " fill="#777777" transform="translate(182,267)"/>
<path d="M0 0 C0.99 0.33 1.98 0.66 3 1 C3 2.32 3 3.64 3 5 C1.68 4.67 0.36 4.34 -1 4 C-0.67 2.68 -0.34 1.36 0 0 Z " fill="#AAAAAA" transform="translate(413,244)"/>
<path d="M0 0 C0.94875 0.350625 1.8975 0.70125 2.875 1.0625 C2.875 1.3925 2.875 1.7225 2.875 2.0625 C-1.58 2.5575 -1.58 2.5575 -6.125 3.0625 C-5.795 2.0725 -5.465 1.0825 -5.125 0.0625 C-3.125 -0.9375 -3.125 -0.9375 0 0 Z " fill="#9B9B9B" transform="translate(254.125,233.9375)"/>
<path d="M0 0 C2.97 0.495 2.97 0.495 6 1 C4.75 2.5625 4.75 2.5625 3 4 C0.8125 3.6875 0.8125 3.6875 -1 3 C-0.67 2.01 -0.34 1.02 0 0 Z " fill="#C2C2C2" transform="translate(304,232)"/>
<path d="M0 0 C0.66 0 1.32 0 2 0 C2 2.31 2 4.62 2 7 C1.01 6.67 0.02 6.34 -1 6 C-1.042721 4.33388095 -1.04063832 2.66617115 -1 1 C-0.67 0.67 -0.34 0.34 0 0 Z " fill="#797979" transform="translate(272,267)"/>
<path d="M0 0 C1.98 0.495 1.98 0.495 4 1 C3.67 1.99 3.34 2.98 3 4 C1.68 3.67 0.36 3.34 -1 3 C-0.67 2.01 -0.34 1.02 0 0 Z " fill="#B3B3B3" transform="translate(360,226)"/>
<path d="M0 0 C0.66 0 1.32 0 2 0 C2 0.66 2 1.32 2 2 C1.34 2 0.68 2 0 2 C0 1.34 0 0.68 0 0 Z " fill="#545454" transform="translate(272,264)"/>
<path d="M0 0 C0.66 0 1.32 0 2 0 C1.67 0.66 1.34 1.32 1 2 C0.67 1.34 0.34 0.68 0 0 Z " fill="#6F6F6F" transform="translate(181,264)"/>
</svg>
