<?xml version="1.0" encoding="UTF-8"?>
<svg version="1.1" xmlns="http://www.w3.org/2000/svg" width="1500" height="1500">
<path d="M0 0 C495 0 990 0 1500 0 C1500 495 1500 990 1500 1500 C1005 1500 510 1500 0 1500 C0 1005 0 510 0 0 Z " fill="#000000" transform="translate(0,0)"/>
<path d="M0 0 C1.77929849 1.0563053 3.53473418 2.1551119 5.25 3.3125 C5.86101562 3.69535156 6.47203125 4.07820312 7.1015625 4.47265625 C12.95206117 8.65801299 17.1020484 16.55762958 19.25 23.3125 C20.62543104 35.5696598 19.43623744 45.07177074 12.25 55.3125 C7.13147485 61.2451047 0.04108519 65.87623038 -7.75 67.3125 C-20.04801422 68.01140354 -29.79441784 67.52953653 -39.60546875 59.40234375 C-46.85868512 52.33409101 -50.92917128 44.73420731 -51.07983398 34.46508789 C-50.9800734 22.79590988 -49.1018329 14.86689601 -40.75 6.3125 C-29.26342905 -3.22935087 -13.93219695 -6.79150954 0 0 Z " fill="#FDFDFD" transform="translate(369.75,717.6875)"/>
<path d="M0 0 C4.9730848 2.89664021 8.49259937 8.09624929 10.265625 13.5234375 C11.70181891 21.67227685 10.98098988 29.4278982 6.625 36.5625 C2.08451995 41.68120403 -2.59778132 45.24811705 -9.56640625 45.828125 C-11.23509766 45.82039062 -11.23509766 45.82039062 -12.9375 45.8125 C-14.61005859 45.82023438 -14.61005859 45.82023438 -16.31640625 45.828125 C-19.375 45.5625 -19.375 45.5625 -23.375 43.5625 C-23.375 48.5125 -23.375 53.4625 -23.375 58.5625 C-21.065 58.5625 -18.755 58.5625 -16.375 58.5625 C-16.375 60.8725 -16.375 63.1825 -16.375 65.5625 C-23.305 65.5625 -30.235 65.5625 -37.375 65.5625 C-37.375 63.2525 -37.375 60.9425 -37.375 58.5625 C-35.395 58.5625 -33.415 58.5625 -31.375 58.5625 C-31.375 41.4025 -31.375 24.2425 -31.375 6.5625 C-33.355 6.5625 -35.335 6.5625 -37.375 6.5625 C-37.375 4.2525 -37.375 1.9425 -37.375 -0.4375 C-32.755 -0.4375 -28.135 -0.4375 -23.375 -0.4375 C-23.045 0.2225 -22.715 0.8825 -22.375 1.5625 C-21.6325 1.0675 -20.89 0.5725 -20.125 0.0625 C-14.1064529 -2.91824963 -6.11524148 -2.56369739 0 0 Z " fill="#FAFAFA" transform="translate(875.375,700.4375)"/>
<path d="M0 0 C5.8519997 3.26537914 9.71907158 7.37368019 12.1796875 13.765625 C14.17084171 22.03657324 13.05433689 29.6496087 8.6875 36.875 C5.02058935 42.42775041 0.99013718 45.07854768 -5.3125 46.875 C-11.95092639 48.00606946 -17.19317738 46.74508001 -23.046875 43.49609375 C-28.32813565 39.7172607 -32.08300414 34.26837846 -33.3125 27.875 C-34.2117167 19.40019056 -33.24677134 12.93879897 -28.3125 5.875 C-20.87518206 -2.62479193 -10.0283114 -4.62615556 0 0 Z " fill="#F5F5F5" transform="translate(1135.3125,700.125)"/>
<path d="M0 0 C5.8519997 3.26537914 9.71907158 7.37368019 12.1796875 13.765625 C14.17084171 22.03657324 13.05433689 29.6496087 8.6875 36.875 C5.02058935 42.42775041 0.99013718 45.07854768 -5.3125 46.875 C-11.95092639 48.00606946 -17.19317738 46.74508001 -23.046875 43.49609375 C-28.32813565 39.7172607 -32.08300414 34.26837846 -33.3125 27.875 C-34.2117167 19.40019056 -33.24677134 12.93879897 -28.3125 5.875 C-20.87518206 -2.62479193 -10.0283114 -4.62615556 0 0 Z " fill="#F4F4F4" transform="translate(775.3125,700.125)"/>
<path d="M0 0 C5.87529418 3.25573627 8.7563121 8.2001242 11.6875 14.0625 C12.80029536 31.56762706 12.80029536 31.56762706 7.24609375 38.98828125 C2.47696881 44.33279946 -2.59867765 46.42007106 -9.60546875 47.375 C-15.29603731 47.68842202 -19.70179287 46.42681679 -24.3125 43.0625 C-29.46774376 38.20155165 -32.95351833 33.79006553 -33.6484375 26.57421875 C-33.73623322 17.97901805 -33.60622094 11.56239126 -27.44140625 5.1015625 C-19.39772615 -2.34910527 -10.33492104 -4.52738233 0 0 Z " fill="#F5F5F5" transform="translate(927.3125,699.9375)"/>
<path d="M0 0 C3.875 1.75 3.875 1.75 5 4 C5.09870258 6.15965842 5.13072107 8.32244907 5.13371277 10.48435974 C5.13597833 11.15773803 5.13824388 11.83111632 5.14057809 12.52490002 C5.14693209 14.79192646 5.14608784 17.05889334 5.14526367 19.32592773 C5.14825428 20.94695107 5.15165658 22.56797369 5.15544128 24.18899536 C5.1642952 28.6000985 5.16661997 33.01118226 5.16725707 37.42229342 C5.16820504 41.10039891 5.17188202 44.77849985 5.17542917 48.45660359 C5.18357892 57.13163454 5.18601292 65.80665511 5.18530273 74.48168945 C5.1847017 83.44077984 5.19525736 92.39981007 5.2110464 101.35888523 C5.2241062 109.04213891 5.22948729 116.72537288 5.22884732 124.40863758 C5.22859189 129.00131757 5.2314681 133.59394411 5.24202538 138.18661308 C5.25168024 142.50478431 5.25180358 146.8228507 5.24450874 151.14102554 C5.24345966 152.72813761 5.24584488 154.31525612 5.2518692 155.9023571 C5.25954658 158.06458168 5.25497292 160.22644035 5.24723816 162.38865662 C5.24778293 163.60006034 5.24832769 164.81146406 5.24888897 166.05957699 C5 169 5 169 3 172 C1.68 172 0.36 172 -1 172 C-2.90980517 167.96153871 -3.25297987 164.73103993 -3.26069641 160.28222656 C-3.26452196 159.61994678 -3.26834751 158.95766701 -3.27228898 158.27531815 C-3.28257982 156.06367223 -3.2786344 153.85228783 -3.2746582 151.640625 C-3.2790068 150.05195883 -3.28419044 148.46329475 -3.29014587 146.87463379 C-3.30352987 142.56479059 -3.30411531 138.25503511 -3.30158257 133.94517517 C-3.30051266 130.34663309 -3.30539664 126.74810875 -3.310188 123.14957047 C-3.32128066 114.66089806 -3.32172165 106.1722699 -3.31567383 97.68359375 C-3.30963048 88.92609627 -3.32195474 80.16875931 -3.3432439 71.41128922 C-3.36085336 63.89099223 -3.36686237 56.37074638 -3.36360615 48.85042953 C-3.36179243 44.35942977 -3.36443851 39.86854457 -3.37832069 35.37756348 C-3.39088413 31.15532593 -3.38896911 26.93333899 -3.37590981 22.71110535 C-3.37354139 21.16192033 -3.3762882 19.61271775 -3.38453293 18.06355286 C-3.39497996 15.94800155 -3.38691725 13.83329436 -3.3742218 11.71777344 C-3.37438954 10.53423279 -3.37455729 9.35069214 -3.37473011 8.13128662 C-2.96426582 4.70140124 -1.98245787 2.79273815 0 0 Z " fill="#F6F6F6" transform="translate(483,663)"/>
<path d="M0 0 C3.49119136 2.77029639 5.24161675 4.88110025 6.6484375 9.1015625 C6.7318179 11.23950775 6.75577497 13.37998259 6.74609375 15.51953125 C6.74287109 16.77314453 6.73964844 18.02675781 6.73632812 19.31835938 C6.72375977 21.28385742 6.72375977 21.28385742 6.7109375 23.2890625 C6.70592067 24.62434731 6.70135809 25.95963391 6.69726562 27.29492188 C6.68546445 30.56384723 6.66900047 33.83268241 6.6484375 37.1015625 C8.2984375 37.1015625 9.9484375 37.1015625 11.6484375 37.1015625 C11.6484375 39.4115625 11.6484375 41.7215625 11.6484375 44.1015625 C7.0284375 44.1015625 2.4084375 44.1015625 -2.3515625 44.1015625 C-2.6815625 43.4415625 -3.0115625 42.7815625 -3.3515625 42.1015625 C-4.04507813 42.58496094 -4.73859375 43.06835938 -5.453125 43.56640625 C-10.51810276 46.24906967 -15.77680943 45.95868936 -21.3515625 45.1015625 C-25.70144504 42.85011576 -28.5577298 39.65909917 -30.3515625 35.1015625 C-30.58855236 30.68565152 -29.90192001 27.03920863 -27.6640625 23.2265625 C-22.11749478 18.12971649 -17.15222647 17.69089592 -9.9765625 17.9140625 C-9.14511719 17.92759766 -8.31367187 17.94113281 -7.45703125 17.95507812 C-5.42159184 17.99017191 -3.38648959 18.04397022 -1.3515625 18.1015625 C-1.58114027 16.6606599 -1.83612604 15.22379235 -2.1015625 13.7890625 C-2.24078125 12.98855469 -2.38 12.18804688 -2.5234375 11.36328125 C-3.59022268 8.44975004 -4.638175 7.5756173 -7.3515625 6.1015625 C-13.19147634 5.28115164 -18.91515552 5.7506838 -24.3515625 8.1015625 C-26.3515625 5.1015625 -26.3515625 5.1015625 -26.4140625 3.1015625 C-25.06452792 0.56126211 -23.51090245 -0.35329087 -20.84765625 -1.35546875 C-13.99872144 -2.84529964 -6.19610096 -3.50967956 0 0 Z " fill="#F7F7F7" transform="translate(1019.3515625,700.8984375)"/>
<path d="M0 0 C4.03654111 1.9828623 6.6500056 4.16579861 9 8 C10.11911712 11.35735137 10.11365586 13.88205386 10.09765625 17.41796875 C10.09443359 18.67158203 10.09121094 19.92519531 10.08789062 21.21679688 C10.07532227 23.18229492 10.07532227 23.18229492 10.0625 25.1875 C10.05748317 26.52278481 10.05292059 27.85807141 10.04882812 29.19335938 C10.03702695 32.46228473 10.02056297 35.73111991 10 39 C11.98 39 13.96 39 16 39 C16 41.31 16 43.62 16 46 C9.07 46 2.14 46 -5 46 C-5 43.69 -5 41.38 -5 39 C-3.02 39 -1.04 39 1 39 C0.91914762 34.74921945 0.80629928 30.499876 0.6875 26.25 C0.65366211 24.44015625 0.65366211 24.44015625 0.61914062 22.59375 C0.58369141 21.43359375 0.54824219 20.2734375 0.51171875 19.078125 C0.48553467 18.00981445 0.45935059 16.94150391 0.43237305 15.84082031 C-0.05086618 12.66579399 -0.76279133 11.27383013 -3 9 C-6.57634313 7.80788562 -9.24064683 7.74073426 -13 8 C-15.76441969 9.40759341 -15.76441969 9.40759341 -18 11 C-18.66 11 -19.32 11 -20 11 C-20 20.24 -20 29.48 -20 39 C-18.02 39 -16.04 39 -14 39 C-14 41.31 -14 43.62 -14 46 C-20.93 46 -27.86 46 -35 46 C-35 43.69 -35 41.38 -35 39 C-33.02 39 -31.04 39 -29 39 C-29 28.77 -29 18.54 -29 8 C-30.98 8 -32.96 8 -35 8 C-35 5.69 -35 3.38 -35 1 C-30.38 1 -25.76 1 -21 1 C-20.67 2.32 -20.34 3.64 -20 5 C-19.56171875 4.6390625 -19.1234375 4.278125 -18.671875 3.90625 C-12.69678174 -0.46576946 -7.27489762 -1.11527966 0 0 Z " fill="#F8F8F8" transform="translate(1192,699)"/>
<path d="M0 0 C3.72243297 2.23345978 5.04194538 4.08312881 7.125 7.875 C7.57910156 11.31005859 7.57910156 11.31005859 7.515625 15.0234375 C7.50996521 15.68082916 7.50430542 16.33822083 7.49847412 17.01553345 C7.47626275 19.09446191 7.4261042 21.17160163 7.375 23.25 C7.35491489 24.66794368 7.33666765 26.08591465 7.3203125 27.50390625 C7.27645067 30.96150877 7.20753437 34.41807951 7.125 37.875 C9.435 37.875 11.745 37.875 14.125 37.875 C14.125 40.185 14.125 42.495 14.125 44.875 C7.195 44.875 0.265 44.875 -6.875 44.875 C-6.875 42.565 -6.875 40.255 -6.875 37.875 C-4.895 37.875 -2.915 37.875 -0.875 37.875 C-0.98491641 33.79111387 -1.11553855 29.70814589 -1.25 25.625 C-1.2809375 24.46613281 -1.311875 23.30726563 -1.34375 22.11328125 C-1.40175781 20.44072266 -1.40175781 20.44072266 -1.4609375 18.734375 C-1.4923584 17.70795898 -1.5237793 16.68154297 -1.55615234 15.62402344 C-1.87483835 12.87639375 -2.40921721 11.19930323 -3.875 8.875 C-7.32561317 6.31899024 -10.7093112 6.45137063 -14.875 6.875 C-18.95188542 8.11397518 -18.95188542 8.11397518 -21.875 10.875 C-22.92501215 15.44573292 -22.85332199 19.95208309 -22.8125 24.625 C-22.82861328 25.89472656 -22.84472656 27.16445313 -22.86132812 28.47265625 C-22.89668758 31.60786122 -22.90003858 34.73979003 -22.875 37.875 C-20.565 37.875 -18.255 37.875 -15.875 37.875 C-15.875 40.185 -15.875 42.495 -15.875 44.875 C-23.135 44.875 -30.395 44.875 -37.875 44.875 C-37.875 42.565 -37.875 40.255 -37.875 37.875 C-35.565 37.875 -33.255 37.875 -30.875 37.875 C-30.875 27.645 -30.875 17.415 -30.875 6.875 C-32.855 6.875 -34.835 6.875 -36.875 6.875 C-36.875 4.565 -36.875 2.255 -36.875 -0.125 C-32.255 -0.125 -27.635 -0.125 -22.875 -0.125 C-22.545 1.195 -22.215 2.515 -21.875 3.875 C-21.41351562 3.5140625 -20.95203125 3.153125 -20.4765625 2.78125 C-13.94085863 -1.86865789 -7.62481294 -2.71031895 0 0 Z " fill="#FBFBFB" transform="translate(650.875,700.125)"/>
<path d="M0 0 C4.95 0 9.9 0 15 0 C15.01417969 2.39636719 15.02835938 4.79273438 15.04296875 7.26171875 C15.07361467 9.59185716 15.11269635 11.92171268 15.15258789 14.25170898 C15.17573286 15.86651549 15.19015543 17.48147221 15.19555664 19.09643555 C15.20487274 21.42331148 15.24591368 23.74783676 15.29296875 26.07421875 C15.2890361 26.79212082 15.28510345 27.51002289 15.28105164 28.24967957 C15.39464375 32.18388019 15.89914483 33.87501013 18.40161133 36.97631836 C20.75855072 39.1630268 20.75855072 39.1630268 23.28125 39.3046875 C24.0134375 39.16289063 24.745625 39.02109375 25.5 38.875 C26.2321875 38.74867188 26.964375 38.62234375 27.71875 38.4921875 C28.4715625 38.32976563 29.224375 38.16734375 30 38 C32.475 37.505 32.475 37.505 35 37 C35 27.43 35 17.86 35 8 C33.02 8 31.04 8 29 8 C29 5.69 29 3.38 29 1 C33.95 1 38.9 1 44 1 C44 13.54 44 26.08 44 39 C45.65 39 47.3 39 49 39 C49 41.31 49 43.62 49 46 C44.71 46 40.42 46 36 46 C35.67 45.01 35.34 44.02 35 43 C33.88625 43.66 32.7725 44.32 31.625 45 C25.89179445 47.87169443 20.26456085 47.85162457 14.125 46.25 C9.21909403 43.36417296 7.49316638 40.42357609 6 35 C5.77294922 31.84033203 5.77294922 31.84033203 5.8046875 28.5078125 C5.81113281 27.30898438 5.81757812 26.11015625 5.82421875 24.875 C5.84097656 23.6375 5.85773437 22.4 5.875 21.125 C5.88402344 19.86429688 5.89304687 18.60359375 5.90234375 17.3046875 C5.92584192 14.2029296 5.95869666 11.10156348 6 8 C4.02 8 2.04 8 0 8 C0 5.36 0 2.72 0 0 Z " fill="#F4F4F4" transform="translate(552,699)"/>
<path d="M0 0 C0.66 0.66 1.32 1.32 2 2 C4.57061311 2.64767793 4.57061311 2.64767793 7 3 C7 5.64 7 8.28 7 11 C3.94998931 11.28773686 1.03790606 11.45487363 -2 11 C-3.875 8.5625 -3.875 8.5625 -5 6 C-8.52994613 4.82335129 -11.29455413 4.80149397 -15 5 C-15.99 5.66 -16.98 6.32 -18 7 C-18.25015873 10.58357241 -18.25015873 10.58357241 -18 14 C-17.46632813 14.17015625 -16.93265625 14.3403125 -16.3828125 14.515625 C-13.91293158 15.31897727 -11.45624755 16.15589133 -9 17 C-7.68902344 17.43505859 -7.68902344 17.43505859 -6.3515625 17.87890625 C-0.61446176 19.93771568 2.98590055 21.574621 6 27 C6.80940492 31.14145518 6.95015637 34.99504449 5.11328125 38.87109375 C1.65858623 43.47352798 -2.80454249 45.53007978 -8.390625 46.3515625 C-14.19659566 46.68994729 -17.54865013 45.54708997 -22.23828125 42.1796875 C-24.41853968 40.71973618 -26.40151606 40.24360787 -29 40 C-29 37.36 -29 34.72 -29 32 C-26.03 32 -23.06 32 -20 32 C-19.34 33.32 -18.68 34.64 -18 36 C-14.56615393 38.54358968 -11.14488056 38.2960629 -7 38 C-4.64630193 37.11935073 -4.64630193 37.11935073 -3 36 C-3 33.36 -3 30.72 -3 28 C-3.60585938 27.84144531 -4.21171875 27.68289063 -4.8359375 27.51953125 C-20.97329421 23.02589807 -20.97329421 23.02589807 -26 17 C-27.25383575 13.23849274 -27.75519945 9.88998961 -27 6 C-24.90392799 2.38462747 -22.2571751 -0.1968048 -18.75 -2.4375 C-11.97176527 -3.8239571 -5.95238587 -3.86905082 0 0 Z " fill="#F4F4F4" transform="translate(538,701)"/>
<path d="M0 0 C2.8541634 1.54183672 5.75690483 2.2390309 8.89453125 3.0234375 C8.89453125 5.6634375 8.89453125 8.3034375 8.89453125 11.0234375 C5.84120645 11.32278307 2.93811982 11.46416157 -0.10546875 11.0234375 C-0.88921875 10.1984375 -1.67296875 9.3734375 -2.48046875 8.5234375 C-5.55128505 5.59885055 -6.49473723 5.58699993 -10.60546875 5.4609375 C-14.16131608 5.63777399 -15.93343092 5.93025034 -19.10546875 7.6484375 C-23.37976024 12.72415864 -24.67448422 16.93503959 -24.45703125 23.48828125 C-23.74198838 28.64453485 -21.74874612 32.52101248 -17.91796875 36.0234375 C-13.89414105 37.45413179 -10.31817746 37.83784516 -6.10546875 37.0234375 C-3.03781452 35.30146943 -0.70225521 33.21701043 0.89453125 30.0234375 C5.64453125 31.8984375 5.64453125 31.8984375 7.89453125 33.0234375 C6.53791782 37.77158449 3.90559088 40.34633119 -0.10546875 43.0234375 C-5.56993526 45.90470166 -9.98093784 47.00352405 -16.078125 45.5546875 C-22.18043996 43.57937167 -27.07493103 40.38370788 -30.4296875 34.83203125 C-33.74694576 27.5806211 -34.66338506 19.91777634 -32.22265625 12.25 C-29.18784335 5.55733315 -25.04710808 1.36711494 -18.79296875 -2.3515625 C-11.82798887 -3.97132526 -6.20573302 -3.56418882 0 0 Z " fill="#F4F4F4" transform="translate(726.10546875,700.9765625)"/>
<path d="M0 0 C3.77719965 2.15725415 6.45288619 4.91617706 8 9 C9.49837933 22.83240711 9.49837933 22.83240711 5.875 28.25 C2.09041099 31.87004166 -0.80103258 33.67931725 -6 34.4375 C-11.04490893 33.70178411 -14.00562408 31.12875105 -17.3125 27.375 C-21.11508832 22.02320904 -20.6567777 16.38865585 -20 10 C-18.38145441 5.47923474 -16.0621046 2.79657845 -12.25 -0.0625 C-7.8816485 -1.32260139 -4.36513766 -1.28845745 0 0 Z " fill="#050505" transform="translate(1131,706)"/>
<path d="M0 0 C3.78425639 2.16128444 6.41706933 4.92449073 8 9 C8.76548376 15.72913631 8.88899468 22.4651255 5.33203125 28.41015625 C2.24352908 32.09643303 -1.30119483 33.72264405 -6.0625 34.5 C-12.03085125 33.48411043 -15.59865191 29.7870825 -19 25 C-21.22736431 20.54527138 -20.49690579 14.83353815 -20 10 C-18.38145441 5.47923474 -16.0621046 2.79657845 -12.25 -0.0625 C-7.8816485 -1.32260139 -4.36513766 -1.28845745 0 0 Z " fill="#040404" transform="translate(771,706)"/>
<path d="M0 0 C4.07154421 1.4726862 6.25408487 3.91532475 8.2734375 7.7734375 C10.15496285 13.53940228 9.73886455 19.74235832 7.875 25.4375 C4.7849018 29.6606342 2.60188237 32.51989075 -2.625 33.484375 C-7.07344536 33.701962 -10.84386442 33.68874203 -14.5 30.9375 C-18.87360786 25.79851076 -20.60230217 20.95223053 -20.3515625 14.2734375 C-19.56406723 9.18096806 -17.169847 5.41799637 -13.9375 1.5 C-9.37087847 -0.83189185 -5.02205565 -0.60597957 0 0 Z " fill="#040404" transform="translate(922,706)"/>
<path d="M0 0 C3.78132037 1.84669135 6.15131822 4.14395619 7.53515625 8.1484375 C8.76060546 14.28662506 9.02859683 20.14974476 6.28515625 25.83984375 C5.52203125 26.66484375 4.75890625 27.48984375 3.97265625 28.33984375 C3.29203125 29.12359375 2.61140625 29.90734375 1.91015625 30.71484375 C-2.53710982 33.17503349 -7.05340947 33.13310051 -12.02734375 32.33984375 C-14.65356445 31.17773438 -14.65356445 31.17773438 -17.02734375 29.33984375 C-18.08127891 25.10430544 -17.76872902 20.75299376 -17.71484375 16.40234375 C-17.74255859 15.20931641 -17.77027344 14.01628906 -17.79882812 12.78710938 C-17.7743904 4.09216615 -17.7743904 4.09216615 -14.26171875 0.5546875 C-9.26041092 -1.32382305 -5.13374693 -1.67168253 0 0 Z " fill="#030303" transform="translate(869.02734375,706.66015625)"/>
<path d="M0 0 C3.02138567 -0.08149592 6.04053905 -0.14073421 9.0625 -0.1875 C9.91005859 -0.21263672 10.75761719 -0.23777344 11.63085938 -0.26367188 C17.22624412 -0.32848328 21.06168493 0.3110078 26 3 C29.12748139 6.37438782 30.89527794 8.63861318 31.25 13.25 C30.89767836 18.53482464 29.46932109 21.6080116 25.625 25.25 C19.93782835 29.04144777 15.34022046 29.26151991 8.6875 29.125 C7.85154297 29.11597656 7.01558594 29.10695313 6.15429688 29.09765625 C4.10274031 29.07420989 2.05133223 29.03834266 0 29 C0.99 28.34 1.98 27.68 3 27 C3.46646462 24.4187315 3.46646462 24.4187315 3.3984375 21.40625 C3.40230469 20.29378906 3.40617188 19.18132813 3.41015625 18.03515625 C3.39855469 16.86855469 3.38695312 15.70195313 3.375 14.5 C3.39240234 12.75009766 3.39240234 12.75009766 3.41015625 10.96484375 C3.40628906 9.85238281 3.40242187 8.73992188 3.3984375 7.59375 C3.39505371 6.56958984 3.39166992 5.54542969 3.38818359 4.49023438 C3.26008301 3.66845703 3.13198242 2.84667969 3 2 C2.01 1.34 1.02 0.68 0 0 Z " fill="#070707" transform="translate(509,792)"/>
<path d="M0 0 C1.09570312 0.00902344 2.19140625 0.01804687 3.3203125 0.02734375 C4.58488281 0.04474609 4.58488281 0.04474609 5.875 0.0625 C5.875 3.3625 5.875 6.6625 5.875 10.0625 C2.905 10.0625 -0.065 10.0625 -3.125 10.0625 C-3.125 9.4025 -3.125 8.7425 -3.125 8.0625 C-7.07565445 9.34379334 -8.99045555 10.48187524 -11.125 14.0625 C-11.62611517 16.86013443 -11.62611517 16.86013443 -11.63671875 19.921875 C-11.67216797 21.03691406 -11.70761719 22.15195312 -11.74414062 23.30078125 C-11.77797852 25.03908203 -11.77797852 25.03908203 -11.8125 26.8125 C-11.84666016 27.98683594 -11.88082031 29.16117188 -11.91601562 30.37109375 C-11.99845173 33.26813389 -12.06761811 36.16487298 -12.125 39.0625 C-9.815 39.0625 -7.505 39.0625 -5.125 39.0625 C-5.125 41.3725 -5.125 43.6825 -5.125 46.0625 C-12.385 46.0625 -19.645 46.0625 -27.125 46.0625 C-27.125 43.7525 -27.125 41.4425 -27.125 39.0625 C-25.145 39.0625 -23.165 39.0625 -21.125 39.0625 C-21.125 28.8325 -21.125 18.6025 -21.125 8.0625 C-23.105 8.0625 -25.085 8.0625 -27.125 8.0625 C-27.125 5.7525 -27.125 3.4425 -27.125 1.0625 C-22.505 1.0625 -17.885 1.0625 -13.125 1.0625 C-12.795 2.7125 -12.465 4.3625 -12.125 6.0625 C-11.196875 4.8559375 -11.196875 4.8559375 -10.25 3.625 C-6.95759393 -0.34525438 -4.99824032 -0.05317277 0 0 Z " fill="#F7F7F7" transform="translate(824.125,698.9375)"/>
<path d="M0 0 C1.50433594 0.01353516 1.50433594 0.01353516 3.0390625 0.02734375 C3.80992187 0.03894531 4.58078125 0.05054688 5.375 0.0625 C5.375 3.3625 5.375 6.6625 5.375 10.0625 C2.735 10.0625 0.095 10.0625 -2.625 10.0625 C-2.625 9.0725 -2.625 8.0825 -2.625 7.0625 C-3.73875 7.64 -4.8525 8.2175 -6 8.8125 C-6.62648438 9.13734375 -7.25296875 9.4621875 -7.8984375 9.796875 C-10.05754973 11.37957265 -10.62316258 12.5813537 -11.625 15.0625 C-11.98888886 17.76784857 -11.98888886 17.76784857 -12.0390625 20.703125 C-12.09707031 22.30800781 -12.09707031 22.30800781 -12.15625 23.9453125 C-12.20265625 25.61207031 -12.20265625 25.61207031 -12.25 27.3125 C-12.30800781 29.00246094 -12.30800781 29.00246094 -12.3671875 30.7265625 C-12.46137336 33.50504548 -12.54699586 36.28352334 -12.625 39.0625 C-9.985 39.0625 -7.345 39.0625 -4.625 39.0625 C-4.625 41.3725 -4.625 43.6825 -4.625 46.0625 C-12.215 46.0625 -19.805 46.0625 -27.625 46.0625 C-27.625 43.7525 -27.625 41.4425 -27.625 39.0625 C-25.315 39.0625 -23.005 39.0625 -20.625 39.0625 C-20.625 28.8325 -20.625 18.6025 -20.625 8.0625 C-22.605 8.0625 -24.585 8.0625 -26.625 8.0625 C-26.625 5.7525 -26.625 3.4425 -26.625 1.0625 C-22.005 1.0625 -17.385 1.0625 -12.625 1.0625 C-12.295 2.3825 -11.965 3.7025 -11.625 5.0625 C-11.00625 4.423125 -10.3875 3.78375 -9.75 3.125 C-6.42682684 -0.10043277 -4.52914474 -0.05266447 0 0 Z " fill="#FBFBFB" transform="translate(975.625,698.9375)"/>
<path d="M0 0 C0 4.95 0 9.9 0 15 C3.63 15 7.26 15 11 15 C11 16.98 11 18.96 11 21 C7.37 21 3.74 21 0 21 C0.09360474 25.21792077 0.19971309 29.43528583 0.31738281 33.65258789 C0.35564866 35.08707068 0.39050581 36.52164865 0.421875 37.95629883 C0.46757862 40.01938878 0.52556193 42.08182495 0.5859375 44.14453125 C0.6173584 45.38565674 0.6487793 46.62678223 0.68115234 47.90551758 C0.77399209 51.16636101 0.77399209 51.16636101 3 54 C5.43693311 54.36416047 5.43693311 54.36416047 8.125 54.1875 C9.49011719 54.14689453 9.49011719 54.14689453 10.8828125 54.10546875 C11.58148437 54.07066406 12.28015625 54.03585937 13 54 C13.33 55.65 13.66 57.3 14 59 C10.62533835 61.02804186 7.91110976 61.32611113 4 61.375 C2.96875 61.40335938 1.9375 61.43171875 0.875 61.4609375 C-2.72110163 60.8843886 -3.77596314 59.82968975 -6 57 C-8.42642682 53.29070934 -8.22989677 49.96699273 -8.1953125 45.609375 C-8.19106766 44.55245453 -8.19106766 44.55245453 -8.18673706 43.47418213 C-8.17557801 41.2326124 -8.15048193 38.99144814 -8.125 36.75 C-8.11496464 35.22656829 -8.10583976 33.70313029 -8.09765625 32.1796875 C-8.07565291 28.45299414 -8.04115272 24.72653667 -8 21 C-10.31 21 -12.62 21 -15 21 C-15 18.69 -15 16.38 -15 14 C-12.69 14 -10.38 14 -8 14 C-8 10.7 -8 7.4 -8 4 C-1.125 0 -1.125 0 0 0 Z " fill="#F7F7F7" transform="translate(1053,685)"/>
<path d="M0 0 C4.62 0 9.24 0 14 0 C14 12.54 14 25.08 14 38 C16.31 38 18.62 38 21 38 C21 40.31 21 42.62 21 45 C14.07 45 7.14 45 0 45 C0 42.69 0 40.38 0 38 C1.98 38 3.96 38 6 38 C6 27.77 6 17.54 6 7 C4.02 7 2.04 7 0 7 C0 4.69 0 2.38 0 0 Z " fill="#FFFFFF" transform="translate(1074,700)"/>
<path d="M0 0 C1.89680481 0.81375122 1.89680481 0.81375122 3.89680481 2.81375122 C3.61082115 6.80548215 2.4075581 8.80814338 -0.36613464 11.61013794 C-1.05387466 12.31371429 -1.74161469 13.01729065 -2.45019531 13.7421875 C-3.19806808 14.4851004 -3.94594086 15.22801331 -4.71647644 15.99343872 C-5.48243637 16.76559723 -6.2483963 17.53775574 -7.03756714 18.33331299 C-8.65753761 19.96038096 -10.28266099 21.58233241 -11.91252136 23.19949341 C-14.41170821 25.68478641 -16.88594389 28.19316475 -19.35905457 30.70437622 C-20.93507676 32.28134928 -22.51250393 33.85691973 -24.09147644 35.43093872 C-24.83327652 36.18599701 -25.5750766 36.9410553 -26.33935547 37.71899414 C-27.03655197 38.40365753 -27.73374847 39.08832092 -28.45207214 39.79373169 C-29.06194473 40.40264252 -29.67181732 41.01155334 -30.3001709 41.63891602 C-32.10319519 42.81375122 -32.10319519 42.81375122 -34.20639038 42.62750244 C-36.10319519 41.81375122 -36.10319519 41.81375122 -38.10319519 39.81375122 C-37.81721153 35.82202029 -36.61394848 33.81935906 -33.84025574 31.0173645 C-33.15251572 30.31378815 -32.4647757 29.61021179 -31.75619507 28.88531494 C-31.0083223 28.14240204 -30.26044952 27.39948914 -29.48991394 26.63406372 C-28.72395401 25.86190521 -27.95799408 25.0897467 -27.16882324 24.29418945 C-25.54885277 22.66712148 -23.92372939 21.04517003 -22.29386902 19.42800903 C-19.79468217 16.94271603 -17.32044649 14.4343377 -14.84733582 11.92312622 C-13.27131362 10.34615316 -11.69388645 8.77058271 -10.11491394 7.19656372 C-9.37311386 6.44150543 -8.63131378 5.68644714 -7.86703491 4.9085083 C-6.82124016 3.88151321 -6.82124016 3.88151321 -5.75431824 2.83377075 C-5.14444565 2.22485992 -4.53457306 1.6159491 -3.90621948 0.98858643 C-2.10319519 -0.18624878 -2.10319519 -0.18624878 0 0 Z " fill="#F1F1F1" transform="translate(429.1031951904297,680.1862487792969)"/>
<path d="M0 0 C3.48818351 0.31674242 5.24025663 1.849817 7.68286133 4.24707031 C8.73833916 5.27383881 8.73833916 5.27383881 9.81513977 6.3213501 C10.56321396 7.06608582 11.31128815 7.81082153 12.08203125 8.578125 C12.85560471 9.34171326 13.62917816 10.10530151 14.42619324 10.89202881 C16.05818458 12.50883514 17.68612712 14.12973702 19.31030273 15.75439453 C21.8048219 18.24234212 24.32232423 20.70532631 26.84179688 23.16796875 C28.42334178 24.74071389 30.00346942 26.31488578 31.58203125 27.890625 C32.34022659 28.62726379 33.09842194 29.36390259 33.8795929 30.12286377 C34.91142952 31.16854523 34.91142952 31.16854523 35.96411133 32.23535156 C36.88200188 33.14682953 36.88200188 33.14682953 37.81843567 34.07672119 C39 36 39 36 38.75224304 38.67279053 C38 41 38 41 37 42 C34.08908162 42.32342052 32.53055762 42.35478214 30.06326294 40.70491028 C29.44957855 40.09822006 28.83589417 39.49152985 28.20361328 38.86645508 C27.50003693 38.18186722 26.79646057 37.49727936 26.07156372 36.79194641 C25.32865082 36.04204941 24.58573792 35.2921524 23.8203125 34.51953125 C23.04815399 33.75452805 22.27599548 32.98952484 21.48043823 32.20133972 C19.85213702 30.58082178 18.23021698 28.95387046 16.61425781 27.32104492 C14.13252842 24.82008675 11.62288036 22.34983219 9.109375 19.88085938 C7.53208057 18.30385527 5.95649953 16.7251352 4.3828125 15.14453125 C3.62775421 14.4047554 2.87269592 13.66497955 2.09475708 12.90278625 C1.41009369 12.20243759 0.7254303 11.50208893 0.02001953 10.78051758 C-0.5888913 10.1698494 -1.19780212 9.55918121 -1.82516479 8.93000793 C-3 7 -3 7 -2.81375122 4.38871765 C-2 2 -2 2 0 0 Z " fill="#F2F2F2" transform="translate(393,775)"/>
<path d="M0 0 C3.26937599 0.31577695 4.16161709 1.10866959 6.47116089 3.39189148 C7.17473724 4.07647934 7.8783136 4.7610672 8.60321045 5.46640015 C9.34612335 6.21629715 10.08903625 6.96619415 10.85446167 7.73881531 C11.62662018 8.50381851 12.39877869 9.26882172 13.19433594 10.05700684 C14.82263715 11.67752478 16.44455719 13.3044761 18.06051636 14.93730164 C20.54224575 17.43825981 23.05189381 19.90851437 25.56539917 22.37748718 C27.1426936 23.95449129 28.71827464 25.53321136 30.29196167 27.11381531 C31.04701996 27.85359116 31.80207825 28.593367 32.58001709 29.3555603 C33.26468048 30.05590897 33.94934387 30.75625763 34.65475464 31.47782898 C35.26366547 32.08849716 35.87257629 32.69916534 36.49993896 33.32833862 C37.67477417 35.25834656 37.67477417 35.25834656 37.48852539 37.86962891 C36.67477417 40.25834656 36.67477417 40.25834656 34.67477417 42.25834656 C31.18659066 41.94160414 29.43451754 40.40852955 26.99191284 38.01127625 C26.28826096 37.32676392 25.58460907 36.64225159 24.8596344 35.93699646 C24.11156021 35.19226074 23.36348602 34.44752502 22.59274292 33.68022156 C21.81916946 32.9166333 21.04559601 32.15304504 20.24858093 31.36631775 C18.61658959 29.74951142 16.98864704 28.12860954 15.36447144 26.50395203 C12.86995227 24.01600443 10.35244994 21.55302024 7.83297729 19.09037781 C6.25143239 17.51763267 4.67130475 15.94346078 3.09274292 14.36772156 C2.33454758 13.63108276 1.57635223 12.89444397 0.79518127 12.13548279 C0.10729019 11.43836182 -0.58060089 10.74124084 -1.28933716 10.022995 C-1.90126419 9.41534302 -2.51319122 8.80769104 -3.1436615 8.18162537 C-4.32522583 6.25834656 -4.32522583 6.25834656 -4.07746887 3.58555603 C-3.02719804 0.33633989 -3.02719804 0.33633989 0 0 Z " fill="#F2F2F2" transform="translate(282.3252258300781,683.7416534423828)"/>
<path d="M0 0 C3 0.125 3 0.125 4 1.125 C4.09868509 2.77691396 4.12798837 4.43303217 4.12939453 6.08789062 C4.13254669 7.14568726 4.13569885 8.20348389 4.13894653 9.29333496 C4.1369223 10.44434692 4.13489807 11.59535889 4.1328125 12.78125 C4.13376923 13.95385376 4.13472595 15.12645752 4.13571167 16.33459473 C4.1363937 18.81958062 4.13453784 21.30456829 4.13037109 23.78955078 C4.12502319 27.60843887 4.13031536 31.42720935 4.13671875 35.24609375 C4.13605797 37.65364609 4.13477682 40.06119837 4.1328125 42.46875 C4.13483673 43.61976196 4.13686096 44.77077393 4.13894653 45.95666504 C4.13579437 47.01446167 4.13264221 48.0722583 4.12939453 49.16210938 C4.12820114 50.56656311 4.12820114 50.56656311 4.12698364 51.99938965 C4 54.125 4 54.125 3 55.125 C0 55.25 0 55.25 -3 55.125 C-4.66716684 53.45783316 -4.12744882 51.4519386 -4.12939453 49.16210938 C-4.13254669 48.10431274 -4.13569885 47.04651611 -4.13894653 45.95666504 C-4.13591019 44.23014709 -4.13591019 44.23014709 -4.1328125 42.46875 C-4.13376923 41.29614624 -4.13472595 40.12354248 -4.13571167 38.91540527 C-4.1363937 36.43041938 -4.13453784 33.94543171 -4.13037109 31.46044922 C-4.12502319 27.64156113 -4.13031536 23.82279065 -4.13671875 20.00390625 C-4.13605797 17.59635391 -4.13477682 15.18880163 -4.1328125 12.78125 C-4.13483673 11.63023804 -4.13686096 10.47922607 -4.13894653 9.29333496 C-4.13579437 8.23553833 -4.13264221 7.1777417 -4.12939453 6.08789062 C-4.12859894 5.15158813 -4.12780334 4.21528564 -4.12698364 3.25061035 C-3.92563864 -0.11975305 -3.44357433 0.14348226 0 0 Z " fill="#FCFCFC" transform="translate(353,793.875)"/>
<path d="M0 0 C1.58669495 -0.00472824 1.58669495 -0.00472824 3.20544434 -0.009552 C4.93196228 -0.00651566 4.93196228 -0.00651566 6.69335938 -0.00341797 C8.45226501 -0.00485306 8.45226501 -0.00485306 10.2467041 -0.00631714 C12.73169 -0.00699917 15.21667766 -0.00514331 17.70166016 -0.00097656 C21.52054825 0.00437134 25.33931872 -0.00092083 29.15820312 -0.00732422 C31.56575547 -0.00666344 33.97330774 -0.00538229 36.38085938 -0.00341797 C38.10737732 -0.00645432 38.10737732 -0.00645432 39.86877441 -0.009552 C40.92657104 -0.00639984 41.98436768 -0.00324768 43.07421875 0 C44.47867249 0.00119339 44.47867249 0.00119339 45.91149902 0.00241089 C48.03710938 0.12939453 48.03710938 0.12939453 49.03710938 1.12939453 C49.16210938 4.12939453 49.16210938 4.12939453 49.03710938 7.12939453 C47.36994253 8.79656138 45.36404797 8.25684335 43.07421875 8.25878906 C42.01642212 8.26194122 40.95862549 8.26509338 39.86877441 8.26834106 C38.71776245 8.26631683 37.56675049 8.2642926 36.38085938 8.26220703 C34.62195374 8.26364212 34.62195374 8.26364212 32.82751465 8.2651062 C30.34252875 8.26578823 27.85754109 8.26393237 25.37255859 8.25976562 C21.5536705 8.25441772 17.73490003 8.25970989 13.91601562 8.26611328 C11.50846328 8.2654525 9.10091101 8.26417135 6.69335938 8.26220703 C4.96684143 8.26524338 4.96684143 8.26524338 3.20544434 8.26834106 C2.14764771 8.2651889 1.08985107 8.26203674 0 8.25878906 C-1.40445374 8.25759567 -1.40445374 8.25759567 -2.83728027 8.25637817 C-4.96289062 8.12939453 -4.96289062 8.12939453 -5.96289062 7.12939453 C-6.08789062 4.12939453 -6.08789062 4.12939453 -5.96289062 1.12939453 C-4.29572378 -0.53777231 -2.28982922 0.00194571 0 0 Z " fill="#FDFDFD" transform="translate(257.962890625,748.87060546875)"/>
<path d="M0 0 C3 0.125 3 0.125 4 1.125 C4.09868509 2.77691396 4.12798837 4.43303217 4.12939453 6.08789062 C4.13254669 7.14568726 4.13569885 8.20348389 4.13894653 9.29333496 C4.1369223 10.44434692 4.13489807 11.59535889 4.1328125 12.78125 C4.13376923 13.95385376 4.13472595 15.12645752 4.13571167 16.33459473 C4.1363937 18.81958062 4.13453784 21.30456829 4.13037109 23.78955078 C4.12502319 27.60843887 4.13031536 31.42720935 4.13671875 35.24609375 C4.13605797 37.65364609 4.13477682 40.06119837 4.1328125 42.46875 C4.13483673 43.61976196 4.13686096 44.77077393 4.13894653 45.95666504 C4.13579437 47.01446167 4.13264221 48.0722583 4.12939453 49.16210938 C4.12820114 50.56656311 4.12820114 50.56656311 4.12698364 51.99938965 C4 54.125 4 54.125 3 55.125 C0 55.25 0 55.25 -3 55.125 C-4.66716684 53.45783316 -4.12744882 51.4519386 -4.12939453 49.16210938 C-4.13254669 48.10431274 -4.13569885 47.04651611 -4.13894653 45.95666504 C-4.13591019 44.23014709 -4.13591019 44.23014709 -4.1328125 42.46875 C-4.13376923 41.29614624 -4.13472595 40.12354248 -4.13571167 38.91540527 C-4.1363937 36.43041938 -4.13453784 33.94543171 -4.13037109 31.46044922 C-4.12502319 27.64156113 -4.13031536 23.82279065 -4.13671875 20.00390625 C-4.13605797 17.59635391 -4.13477682 15.18880163 -4.1328125 12.78125 C-4.13483673 11.63023804 -4.13686096 10.47922607 -4.13894653 9.29333496 C-4.13579437 8.23553833 -4.13264221 7.1777417 -4.12939453 6.08789062 C-4.12859894 5.15158813 -4.12780334 4.21528564 -4.12698364 3.25061035 C-3.92563864 -0.11975305 -3.44357433 0.14348226 0 0 Z " fill="#FCFCFC" transform="translate(353,649.875)"/>
<path d="M0 0 C1.58669495 -0.00472824 1.58669495 -0.00472824 3.20544434 -0.009552 C4.93196228 -0.00651566 4.93196228 -0.00651566 6.69335938 -0.00341797 C8.45226501 -0.00485306 8.45226501 -0.00485306 10.2467041 -0.00631714 C12.73169 -0.00699917 15.21667766 -0.00514331 17.70166016 -0.00097656 C21.52054825 0.00437134 25.33931872 -0.00092083 29.15820312 -0.00732422 C31.56575547 -0.00666344 33.97330774 -0.00538229 36.38085938 -0.00341797 C38.10737732 -0.00645432 38.10737732 -0.00645432 39.86877441 -0.009552 C40.92657104 -0.00639984 41.98436768 -0.00324768 43.07421875 0 C44.47867249 0.00119339 44.47867249 0.00119339 45.91149902 0.00241089 C48.03710938 0.12939453 48.03710938 0.12939453 49.03710938 1.12939453 C49.16210938 4.12939453 49.16210938 4.12939453 49.03710938 7.12939453 C47.38592163 8.78058228 45.45480482 8.26519484 43.18188477 8.2746582 C42.14733658 8.28103806 41.11278839 8.28741791 40.04689026 8.29399109 C38.35788857 8.29566032 38.35788857 8.29566032 36.63476562 8.29736328 C35.48672958 8.30069168 34.33869354 8.30402008 33.15586853 8.30744934 C30.72216189 8.31252355 28.28844826 8.31485752 25.85473633 8.31469727 C22.11918745 8.31688308 18.38393403 8.33503199 14.6484375 8.35400391 C12.28971456 8.35693778 9.9309902 8.35892262 7.57226562 8.35986328 C6.44828873 8.3670488 5.32431183 8.37423431 4.16627502 8.38163757 C3.12857468 8.37856094 2.09087433 8.37548431 1.02172852 8.37231445 C0.10541153 8.37373947 -0.81090546 8.37516449 -1.75498962 8.37663269 C-3.96289062 8.12939453 -3.96289062 8.12939453 -5.96289062 6.12939453 C-6.15039062 3.56689453 -6.15039062 3.56689453 -5.96289062 1.12939453 C-4.29572378 -0.53777231 -2.28982922 0.00194571 0 0 Z " fill="#FBFBFB" transform="translate(409.962890625,745.87060546875)"/>
<path d="M0 0 C0.74735413 0.2276152 1.49470825 0.45523041 2.26470947 0.68974304 C2.96018982 2.94673157 2.96018982 2.94673157 3.26470947 5.68974304 C2.04518127 7.66444397 2.04518127 7.66444397 0.13702393 9.57792664 C-0.57088791 10.30152374 -1.27879974 11.02512085 -2.00816345 11.77064514 C-2.78823257 12.53543182 -3.5683017 13.30021851 -4.37200928 14.08818054 C-5.16299515 14.8825351 -5.95398102 15.67688965 -6.76893616 16.49531555 C-8.44567949 18.17175971 -10.12992619 19.84072739 -11.82098389 21.50273132 C-14.41444109 24.05652131 -16.97730077 26.63833412 -19.5380249 29.22489929 C-21.16843671 30.84775274 -22.8005428 32.46890616 -24.43450928 34.08818054 C-25.20445724 34.86511261 -25.97440521 35.64204468 -26.76768494 36.44252014 C-27.49135757 37.14720428 -28.21503021 37.85188843 -28.96063232 38.57792664 C-29.59430222 39.20460236 -30.22797211 39.83127808 -30.88084412 40.47694397 C-32.73529053 41.68974304 -32.73529053 41.68974304 -34.84620667 41.50923157 C-36.73529053 40.68974304 -36.73529053 40.68974304 -38.73529053 38.68974304 C-38.41854811 35.20155954 -36.88547352 33.44948641 -34.48822021 31.00688171 C-33.80370789 30.30322983 -33.11919556 29.59957794 -32.41394043 28.87460327 C-31.66920471 28.12652908 -30.92446899 27.3784549 -30.15716553 26.60771179 C-29.39357727 25.83413834 -28.62998901 25.06056488 -27.84326172 24.2635498 C-26.22645539 22.63155847 -24.60555351 21.00361592 -22.980896 19.37944031 C-20.4929484 16.88492115 -18.02996421 14.36741881 -15.56732178 11.84794617 C-13.99457664 10.26640126 -12.42040475 8.68627362 -10.84466553 7.10771179 C-10.10802673 6.34951645 -9.37138794 5.59132111 -8.61242676 4.81015015 C-7.91530579 4.12225906 -7.21818481 3.43436798 -6.49993896 2.72563171 C-5.588461 1.80774117 -5.588461 1.80774117 -4.65856934 0.87130737 C-2.73529053 -0.31025696 -2.73529053 -0.31025696 0 0 Z " fill="#FBFBFB" transform="translate(317.73529052734375,779.3102569580078)"/>
<path d="M0 0 C2.90567066 0.88784381 3.86322363 1.83492507 5.8125 4.1875 C7.41447672 7.98165538 7.12609115 10.05868098 6 14 C3.98608141 16.86830829 2.54565017 18.61592935 -0.93359375 19.48046875 C-4.81957437 19.75226702 -6.67575192 19.20941022 -10 17.0625 C-12.33216044 13.49137933 -12.73957582 11.35488967 -12.48046875 7.16015625 C-10.98248598 0.42532316 -6.15511524 -0.7833783 0 0 Z " fill="#0A0A0A" transform="translate(719,802)"/>
<path d="M0 0 C2.74483673 1.24765306 4.47294058 2.35315435 6.375 4.6875 C7.34722353 8.28472707 7.10641347 11.44783044 6 15 C3.86439595 17.58861097 2.36385138 18.71069819 -0.93359375 19.41015625 C-4.83030806 19.69743765 -6.65840618 19.22061268 -10 17.0625 C-12.32353289 13.50459026 -12.79544168 11.34734473 -12.55078125 7.16015625 C-11.92326434 4.69904381 -11.22724996 3.65290827 -9.375 1.9375 C-5.70826804 -0.16747575 -4.1309183 -0.70313503 0 0 Z " fill="#090909" transform="translate(600,802)"/>
<path d="M0 0 C1.76923828 0.01353516 1.76923828 0.01353516 3.57421875 0.02734375 C4.47785156 0.03894531 5.38148438 0.05054688 6.3125 0.0625 C6.65950954 3.78963945 6.81073266 7.34450577 6.3125 11.0625 C2.64274403 15.0145449 -1.38398363 15.61895962 -6.5390625 16.1796875 C-9.10139201 16.03992407 -10.53727583 15.4506194 -12.6875 14.0625 C-14.6875 11.0625 -14.6875 11.0625 -14.5625 7.5625 C-13.6875 4.0625 -13.6875 4.0625 -11.8125 2.1875 C-7.74891826 0.03619202 -4.53528237 -0.04490379 0 0 Z " fill="#111111" transform="translate(1011.6875,723.9375)"/>
<path d="M0 0 C3.02138567 -0.08149592 6.04053905 -0.14073421 9.0625 -0.1875 C9.91005859 -0.21263672 10.75761719 -0.23777344 11.63085938 -0.26367188 C17.22624412 -0.32848328 21.06168493 0.3110078 26 3 C29.12748139 6.37438782 30.89527794 8.63861318 31.25 13.25 C30.89767836 18.53482464 29.46932109 21.6080116 25.625 25.25 C19.93782835 29.04144777 15.34022046 29.26151991 8.6875 29.125 C7.85154297 29.11597656 7.01558594 29.10695313 6.15429688 29.09765625 C4.10274031 29.07420989 2.05133223 29.03834266 0 29 C0.99 28.34 1.98 27.68 3 27 C3.46646462 24.4187315 3.46646462 24.4187315 3.3984375 21.40625 C3.40230469 20.29378906 3.40617188 19.18132813 3.41015625 18.03515625 C3.39855469 16.86855469 3.38695312 15.70195313 3.375 14.5 C3.39240234 12.75009766 3.39240234 12.75009766 3.41015625 10.96484375 C3.40628906 9.85238281 3.40242187 8.73992188 3.3984375 7.59375 C3.39505371 6.56958984 3.39166992 5.54542969 3.38818359 4.49023438 C3.26008301 3.66845703 3.13198242 2.84667969 3 2 C2.01 1.34 1.02 0.68 0 0 Z M8 1 C7.97113463 5.31248609 7.95324745 9.62494762 7.9375 13.9375 C7.92912109 15.16919922 7.92074219 16.40089844 7.91210938 17.66992188 C7.90888672 18.83974609 7.90566406 20.00957031 7.90234375 21.21484375 C7.89710693 22.29886475 7.89187012 23.38288574 7.88647461 24.49975586 C7.71573103 26.94049948 7.71573103 26.94049948 9 28 C15.51508136 28.51098677 19.35189818 27.16029359 24.375 23.0625 C26.95512555 18.1999557 26.73803527 13.38243907 26 8 C24.23807885 4.73718305 22.93552228 3.56131337 19.8125 1.6875 C17.14232664 1.03479096 15.05388323 0.92990721 12.32421875 0.95703125 C11.51428467 0.96323486 10.70435059 0.96943848 9.86987305 0.97583008 C8.94428589 0.98779419 8.94428589 0.98779419 8 1 Z " fill="#DADADA" transform="translate(509,792)"/>
<path d="M0 0 C3.96 0 7.92 0 12 0 C11.01 0.495 11.01 0.495 10 1 C12.65253966 8.60281331 12.65253966 8.60281331 18 14 C18.433125 12.88625 18.433125 12.88625 18.875 11.75 C20 9 20 9 21.1875 7 C22.26111483 4.35725581 21.74938546 2.69778766 21 0 C24.3 0 27.6 0 31 0 C30.319375 0.5775 29.63875 1.155 28.9375 1.75 C23.67146995 7.07655913 18.61307804 14.40641151 18.375 22.0625 C18.64100314 26.22851553 18.64100314 26.22851553 22 29 C18.04 29 14.08 29 10 29 C11.32 28.34 12.64 27.68 14 27 C14.40119305 20.03528869 12.37845647 15.21650842 8.6875 9.5 C8.2963501 8.88882324 7.9052002 8.27764648 7.50219727 7.64794922 C5.37001748 4.49541645 3.65603175 2.27166322 0 1 C0 0.67 0 0.34 0 0 Z " fill="#E4E4E4" transform="translate(674,792)"/>
<path d="M0 0 C4.62 0 9.24 0 14 0 C12.02 0.99 12.02 0.99 10 2 C9.67 10.25 9.34 18.5 9 27 C12.96 26.67 16.92 26.34 21 26 C21.66 24.68 22.32 23.36 23 22 C24 24 24 24 23.23046875 26.60546875 C21 29 21 29 18.77978516 29.40478516 C15.94279549 29.49361966 13.14822685 29.43416485 10.3125 29.3125 C9.32443359 29.28994141 8.33636719 29.26738281 7.31835938 29.24414062 C4.87738441 29.18517988 2.43945132 29.10295048 0 29 C0.64743164 28.61932373 1.29486328 28.23864746 1.96191406 27.84643555 C4.22516361 26.15702543 4.22516361 26.15702543 4.54589844 23.45629883 C4.5668457 22.46654053 4.58779297 21.47678223 4.609375 20.45703125 C4.64160156 19.38388672 4.67382812 18.31074219 4.70703125 17.20507812 C4.72830078 15.52575195 4.72830078 15.52575195 4.75 13.8125 C4.77964844 12.68134766 4.80929687 11.55019531 4.83984375 10.38476562 C4.91060309 7.58977167 4.96326976 4.79561472 5 2 C3.35 1.67 1.7 1.34 0 1 C0 0.67 0 0.34 0 0 Z " fill="#E1E1E1" transform="translate(788,792)"/>
<path d="M0 0 C0 5.28 0 10.56 0 16 C2.64 16 5.28 16 8 16 C7.85930804 13.87465341 7.71229079 11.74972471 7.5625 9.625 C7.48128906 8.44164062 7.40007813 7.25828125 7.31640625 6.0390625 C7.18915064 3.08481099 7.18915064 3.08481099 6 1 C7.98 0.67 9.96 0.34 12 0 C12 5.28 12 10.56 12 16 C12.99 16.33 13.98 16.66 15 17 C11.12315913 18.19287411 8.08378077 19 4 19 C2.4221875 19.0309375 2.4221875 19.0309375 0.8125 19.0625 C-2 19 -2 19 -3 18 C-3.21110519 15.51658199 -3.37594795 13.05043287 -3.5 10.5625 C-3.57707326 5.63085569 -3.57707326 5.63085569 -5 1 C-3 0 -3 0 0 0 Z " fill="#CDCDCD" transform="translate(734,802)"/>
<path d="M0 0 C2.9375 0.6875 2.9375 0.6875 5.3125 3 C6.9375 5.6875 6.9375 5.6875 6.9375 8.6875 C2.9775 8.6875 -0.9825 8.6875 -5.0625 8.6875 C-4.4025 10.9975 -3.7425 13.3075 -3.0625 15.6875 C1.17396767 16.6964034 1.17396767 16.6964034 5.3125 15.75 C5.84875 15.399375 6.385 15.04875 6.9375 14.6875 C5.9375 17.6875 5.9375 17.6875 4.25 18.875 C1.20982505 19.94316958 -0.86126715 20.15434646 -4.0625 19.6875 C-7.41528215 16.8641045 -8.00363925 15.09952524 -8.625 10.75 C-8.4545963 7.6533534 -7.76790209 5.69319606 -5.9375 3.1875 C-3.0625 0.6875 -3.0625 0.6875 0 0 Z " fill="#E2E2E2" transform="translate(846.0625,801.3125)"/>
<path d="M0 0 C2.9375 0.6875 2.9375 0.6875 5.3125 3 C6.9375 5.6875 6.9375 5.6875 6.9375 8.6875 C2.9775 8.6875 -0.9825 8.6875 -5.0625 8.6875 C-4.4025 10.9975 -3.7425 13.3075 -3.0625 15.6875 C1.17396767 16.6964034 1.17396767 16.6964034 5.3125 15.75 C5.84875 15.399375 6.385 15.04875 6.9375 14.6875 C5.9375 17.6875 5.9375 17.6875 4.25 18.875 C1.20982505 19.94316958 -0.86126715 20.15434646 -4.0625 19.6875 C-7.41528215 16.8641045 -8.00363925 15.09952524 -8.625 10.75 C-8.4545963 7.6533534 -7.76790209 5.69319606 -5.9375 3.1875 C-3.0625 0.6875 -3.0625 0.6875 0 0 Z " fill="#D4D4D4" transform="translate(639.0625,801.3125)"/>
<path d="M0 0 C0.33 1.32 0.66 2.64 1 4 C-1.01822917 3.67447917 -3.03645833 3.34895833 -5.0546875 3.0234375 C-5.69664062 3.01570312 -6.33859375 3.00796875 -7 3 C-9.58926331 5.58926331 -9.37398043 7.02705279 -9.625 10.625 C-9.69976563 11.62789062 -9.77453125 12.63078125 -9.8515625 13.6640625 C-9.90054688 14.43492187 -9.94953125 15.20578125 -10 16 C-8.35 16 -6.7 16 -5 16 C-5 16.66 -5 17.32 -5 18 C-6.65 18 -8.3 18 -10 18 C-10 22.62 -10 27.24 -10 32 C-8.35 32.33 -6.7 32.66 -5 33 C-5 33.33 -5 33.66 -5 34 C-8.63 34 -12.26 34 -16 34 C-15.67 33.34 -15.34 32.68 -15 32 C-14.34 32 -13.68 32 -13 32 C-13 27.38 -13 22.76 -13 18 C-13.99 17.67 -14.98 17.34 -16 17 C-15.34 16.67 -14.68 16.34 -14 16 C-13.45855615 13.81482433 -13.45855615 13.81482433 -13.125 11.25 C-12.33130249 6.84686856 -11.29261295 4.1897188 -8 1 C-5.29120665 -0.35439668 -2.99066732 -0.06501451 0 0 Z " fill="#EBEBEB" transform="translate(841,787)"/>
<path d="M0 0 C5.94 0 11.88 0 18 0 C18 0.33 18 0.66 18 1 C14.7 1 11.4 1 8 1 C8.33 9.91 8.66 18.82 9 28 C7.35 28 5.7 28 4 28 C3.98541748 27.22285645 3.97083496 26.44571289 3.95581055 25.64501953 C3.88153022 22.13783312 3.78480411 18.6316199 3.6875 15.125 C3.66494141 13.90167969 3.64238281 12.67835938 3.61914062 11.41796875 C3.58369141 10.25136719 3.54824219 9.08476563 3.51171875 7.8828125 C3.48553467 6.80402832 3.45935059 5.72524414 3.43237305 4.61376953 C3.28968994 3.75122559 3.14700684 2.88868164 3 2 C2.01 1.34 1.02 0.68 0 0 Z " fill="#E9E9E9" transform="translate(509,792)"/>
<path d="M0 0 C3.67700184 0.2828463 6.29660472 0.51872954 9.375 2.625 C11.56576361 5.82688528 11.93220153 8.1354873 12 12 C10.41161066 15.57387602 9.28365642 16.81089572 6 19 C1.17301831 19.5449818 -0.89592369 19.71304929 -5 17.0625 C-7.35007233 13.46395175 -7.65927382 11.31054161 -7.44140625 7.09375 C-6.81559356 4.12529333 -5.42233615 2.74105411 -3 1 C-2.34 1.33 -1.68 1.66 -1 2 C-1.99 3.485 -1.99 3.485 -3 5 C-3.34619733 8.73893121 -3.21751703 11.39862939 -1.9375 14.9375 C-0.04765166 17.40971723 -0.04765166 17.40971723 3.6875 17.3125 C4.780625 17.209375 5.87375 17.10625 7 17 C7.05437607 15.41705218 7.09296271 13.83355744 7.125 12.25 C7.14820313 11.36828125 7.17140625 10.4865625 7.1953125 9.578125 C6.98760207 6.83634728 6.50913291 5.28409305 5 3 C2.46229997 1.71745356 2.46229997 1.71745356 0 1 C0 0.67 0 0.34 0 0 Z " fill="#E1E1E1" transform="translate(595,802)"/>
<path d="M0 0 C3.67700184 0.2828463 6.29660472 0.51872954 9.375 2.625 C11.59570469 5.87064531 12 8.07121612 12 12 C9.06329114 17.46835443 9.06329114 17.46835443 6 19 C-0.94263424 19.68288206 -0.94263424 19.68288206 -5 17.0625 C-7.35007233 13.46395175 -7.65927382 11.31054161 -7.44140625 7.09375 C-6.81559356 4.12529333 -5.42233615 2.74105411 -3 1 C-2.34 1.33 -1.68 1.66 -1 2 C-1.66 2.66 -2.32 3.32 -3 4 C-3.3455873 8.21616503 -3.34675002 11.02094112 -1.9375 15 C-0.0332827 17.40381093 -0.0332827 17.40381093 3.6875 17.3125 C4.780625 17.209375 5.87375 17.10625 7 17 C7.05437607 15.41705218 7.09296271 13.83355744 7.125 12.25 C7.14820313 11.36828125 7.17140625 10.4865625 7.1953125 9.578125 C6.98760207 6.83634728 6.50913291 5.28409305 5 3 C2.46229997 1.71745356 2.46229997 1.71745356 0 1 C0 0.67 0 0.34 0 0 Z " fill="#E6E6E6" transform="translate(714,802)"/>
<path d="M0 0 C2.9375 0.8125 2.9375 0.8125 4.9375 2.8125 C4.47596154 9.27403846 4.47596154 9.27403846 1.9375 11.8125 C-0.87234248 12.17273622 -2.44491919 12.19582602 -4.875 10.6875 C-6.61448782 7.94094028 -6.46019128 5.99403026 -6.0625 2.8125 C-4.31169972 -0.20276715 -3.50175349 -0.21439307 0 0 Z " fill="#F0F0F0" transform="translate(1243.0625,734.1875)"/>
<path d="M0 0 C0.33 1.32 0.66 2.64 1 4 C-1.97 3.67 -4.94 3.34 -8 3 C-9.17673198 5.35346396 -9.16623866 6.8806033 -9.1875 9.5 C-9.20167969 10.2940625 -9.21585938 11.088125 -9.23046875 11.90625 C-9.19666303 14.22033317 -9.19666303 14.22033317 -7 16 C-3.41656024 16.16677282 -3.41656024 16.16677282 0 16 C-1.0625 17.5 -1.0625 17.5 -3 19 C-6.4375 19.5 -6.4375 19.5 -10 19 C-12.56268866 16.8972811 -13.7368733 15.3454726 -14.37890625 12.0625 C-14.60497549 8.21203039 -14.24329285 6.38115879 -12.125 3.0625 C-8.20365454 -0.74351177 -5.25644418 -0.08478136 0 0 Z " fill="#E7E7E7" transform="translate(583,802)"/>
<path d="M0 0 C2.64 0 5.28 0 8 0 C8 0.66 8 1.32 8 2 C7.01 2 6.02 2 5 2 C4.81824219 2.64066406 4.63648438 3.28132812 4.44921875 3.94140625 C2.93729955 9.14395897 1.24999329 14.07144327 -1 19 C-1.99 19 -2.98 19 -4 19 C-4.42152344 17.86820313 -4.84304688 16.73640625 -5.27734375 15.5703125 C-5.83067131 14.08852006 -6.38405989 12.60675041 -6.9375 11.125 C-7.21529297 10.37863281 -7.49308594 9.63226562 -7.77929688 8.86328125 C-9.25099194 4.87275485 -9.25099194 4.87275485 -11 1 C-9.35 1 -7.7 1 -6 1 C-4.35 4.96 -2.7 8.92 -1 13 C0.32 9.37 1.64 5.74 3 2 C2.01 2 1.02 2 0 2 C0 1.34 0 0.68 0 0 Z " fill="#EDEDED" transform="translate(621,802)"/>
<path d="M0 0 C3.0625 0.3125 3.0625 0.3125 5 1.4375 C6.0625 3.3125 6.0625 3.3125 5.875 6.375 C5.0625 9.3125 5.0625 9.3125 3.0625 11.3125 C0.0625 11.5625 0.0625 11.5625 -2.9375 11.3125 C-4.9375 9.3125 -4.9375 9.3125 -5.1875 5.8125 C-4.87458101 1.43163414 -4.40975115 0.46912246 0 0 Z " fill="#F5F5F5" transform="translate(1083.9375,677.6875)"/>
<path d="M0 0 C0 1.32 0 2.64 0 4 C-0.66 4 -1.32 4 -2 4 C-2.33 3.34 -2.66 2.68 -3 2 C-4.32 2 -5.64 2 -7 2 C-7.33 2.99 -7.66 3.98 -8 5 C-7.2575 5.2475 -6.515 5.495 -5.75 5.75 C-2.69801934 7.13726393 -1.0005519 8.30694937 1 11 C0.83849795 14.39154295 0.41703243 15.58296757 -2 18 C-4.68839385 18.26991906 -7.29141936 18.08737357 -10 18 C-9.67 16.68 -9.34 15.36 -9 14 C-8.34 14.66 -7.68 15.32 -7 16 C-5.68 16 -4.36 16 -3 16 C-3.05563651 14.16531168 -3.05563651 14.16531168 -4 12 C-5.010625 11.195625 -6.02125 10.39125 -7.0625 9.5625 C-10 7 -10 7 -10.5625 4.375 C-10 2 -10 2 -8.9375 0.125 C-5.88430685 -1.64782183 -3.33588292 -0.69235306 0 0 Z " fill="#E2E2E2" transform="translate(565,803)"/>
<path d="M0 0 C0.04898438 1.20398438 0.09796875 2.40796875 0.1484375 3.6484375 C0.22346343 5.22398198 0.29901133 6.79950166 0.375 8.375 C0.4059375 9.1690625 0.436875 9.963125 0.46875 10.78125 C0.51816421 15.36667375 0.51816421 15.36667375 3 19 C0.03 19 -2.94 19 -6 19 C-5.67 18.34 -5.34 17.68 -5 17 C-4.77049681 14.795636 -4.58924067 12.58607827 -4.4375 10.375 C-4.35371094 9.18648437 -4.26992188 7.99796875 -4.18359375 6.7734375 C-4.12300781 5.85820313 -4.06242188 4.94296875 -4 4 C-4.66 4 -5.32 4 -6 4 C-6 3.34 -6 2.68 -6 2 C-2.25 0 -2.25 0 0 0 Z " fill="#CBCBCB" transform="translate(820,802)"/>
<path d="M0 0 C2.37706418 3.66539668 2.05094317 6.49056835 1.625 10.75 C1.51414062 11.92046875 1.40328125 13.0909375 1.2890625 14.296875 C1.19367187 15.18890625 1.09828125 16.0809375 1 17 C2.32 17.66 3.64 18.32 5 19 C1.7 19 -1.6 19 -5 19 C-4.34 18.34 -3.68 17.68 -3 17 C-2.71793715 13.94067405 -2.71793715 13.94067405 -2.8125 10.5 C-2.81894531 9.3346875 -2.82539062 8.169375 -2.83203125 6.96875 C-2.79942061 4.07117998 -2.79942061 4.07117998 -4 2 C-2.68 1.34 -1.36 0.68 0 0 Z " fill="#ECECEC" transform="translate(756,802)"/>
<path d="M0 0 C2.37706418 3.66539668 2.05094317 6.49056835 1.625 10.75 C1.51414062 11.92046875 1.40328125 13.0909375 1.2890625 14.296875 C1.19367187 15.18890625 1.09828125 16.0809375 1 17 C2.32 17.66 3.64 18.32 5 19 C1.7 19 -1.6 19 -5 19 C-4.34 18.34 -3.68 17.68 -3 17 C-2.71793715 13.94067405 -2.71793715 13.94067405 -2.8125 10.5 C-2.81894531 9.3346875 -2.82539062 8.169375 -2.83203125 6.96875 C-2.79942061 4.07117998 -2.79942061 4.07117998 -4 2 C-2.68 1.34 -1.36 0.68 0 0 Z " fill="#EAEAEA" transform="translate(654,802)"/>
<path d="M0 0 C0 5.28 0 10.56 0 16 C0.99 16.33 1.98 16.66 3 17 C3 17.66 3 18.32 3 19 C1.33388095 19.042721 -0.33382885 19.04063832 -2 19 C-3.97271001 17.02728999 -3.3647672 13.27466888 -3.5 10.5625 C-3.57707326 5.63085569 -3.57707326 5.63085569 -5 1 C-3 0 -3 0 0 0 Z " fill="#E8E8E8" transform="translate(734,802)"/>
<path d="M0 0 C0.04898438 1.20398438 0.09796875 2.40796875 0.1484375 3.6484375 C0.22346343 5.22398198 0.29901133 6.79950166 0.375 8.375 C0.4059375 9.1690625 0.436875 9.963125 0.46875 10.78125 C0.51816421 15.36667375 0.51816421 15.36667375 3 19 C0.03 19 -2.94 19 -6 19 C-5.34 18.34 -4.68 17.68 -4 17 C-3.71793715 13.94067405 -3.71793715 13.94067405 -3.8125 10.5 C-3.81894531 9.3346875 -3.82539062 8.169375 -3.83203125 6.96875 C-3.79942061 4.07117998 -3.79942061 4.07117998 -5 2 C-1.125 0 -1.125 0 0 0 Z " fill="#EFEFEF" transform="translate(549,802)"/>
<path d="M0 0 C0.66 0.33 1.32 0.66 2 1 C1.01 2.485 1.01 2.485 0 4 C-0.35042485 7.78458841 -0.26916315 10.34834184 1.1875 13.875 C3.37496702 16.4396165 4.69866765 16.7323244 8 17 C8 17.33 8 17.66 8 18 C3.79034186 18.41271158 1.64412341 18.42484735 -1.9375 16.0625 C-4.36492648 12.45813948 -4.66135996 10.35091851 -4.44140625 6.09375 C-3.81559356 3.12529333 -2.42233615 1.74105411 0 0 Z " fill="#EAEAEA" transform="translate(592,803)"/>
<path d="M0 0 C3.3 0 6.6 0 10 0 C9.29875 0.61875 8.5975 1.2375 7.875 1.875 C4.06064252 5.64563991 1.61908234 10.36485428 -1 15 C-1.66 14.67 -2.32 14.34 -3 14 C-2.05272536 11.56415094 -1.14896887 9.25089494 0.1875 7 C1.26111483 4.35725581 0.74938546 2.69778766 0 0 Z " fill="#D5D5D5" transform="translate(695,792)"/>
<path d="M0 0 C0.66 0 1.32 0 2 0 C2.66 2.31 3.32 4.62 4 7 C8.23646767 8.0089034 8.23646767 8.0089034 12.375 7.0625 C12.91125 6.711875 13.4475 6.36125 14 6 C13 9 13 9 11.3125 10.1875 C8.27232505 11.25566958 6.20123285 11.46684646 3 11 C0.26044383 8.47672458 -0.88942577 6.97305322 -1.3125 3.25 C-1 1 -1 1 0 0 Z " fill="#E3E3E3" transform="translate(839,810)"/>
<path d="M0 0 C2.64 0 5.28 0 8 0 C8 0.66 8 1.32 8 2 C7.01 2 6.02 2 5 2 C4.80664062 2.68707031 4.61328125 3.37414062 4.4140625 4.08203125 C4.15367187 4.98308594 3.89328125 5.88414062 3.625 6.8125 C3.36976563 7.70582031 3.11453125 8.59914063 2.8515625 9.51953125 C2 12 2 12 0 15 C-1 13 -1 13 -0.22265625 10.3984375 C0.16019531 9.40070312 0.54304687 8.40296875 0.9375 7.375 C1.31777344 6.37210938 1.69804688 5.36921875 2.08984375 4.3359375 C2.39019531 3.56507813 2.69054687 2.79421875 3 2 C2.01 2 1.02 2 0 2 C0 1.34 0 0.68 0 0 Z " fill="#BDBDBD" transform="translate(621,802)"/>
<path d="M0 0 C2.375 -0.125 2.375 -0.125 5 0 C7 2 7 2 7 5 C4.03 5 1.06 5 -2 5 C-1.34 3.35 -0.68 1.7 0 0 Z " fill="#2D2D2D" transform="translate(843,804)"/>
<path d="M0 0 C0.886875 0.103125 1.77375 0.20625 2.6875 0.3125 C3.0175 1.6325 3.3475 2.9525 3.6875 4.3125 C2.45 4.10625 1.2125 3.9 -0.0625 3.6875 C-3.43159835 3.25142876 -5.44091921 3.27846361 -8.3125 5.3125 C-4.12788462 0.38942308 -4.12788462 0.38942308 0 0 Z " fill="#D4D4D4" transform="translate(838.3125,786.6875)"/>
<path d="M0 0 C1.65 0 3.3 0 5 0 C5.33 1.32 5.66 2.64 6 4 C3.69 4 1.38 4 -1 4 C-0.67 2.68 -0.34 1.36 0 0 Z " fill="#080808" transform="translate(636,804)"/>
<path d="M0 0 C0.99 0.33 1.98 0.66 3 1 C3.33 2.65 3.66 4.3 4 6 C0.37 6 -3.26 6 -7 6 C-7 5.67 -7 5.34 -7 5 C-4.36 5 -1.72 5 1 5 C0.67 3.35 0.34 1.7 0 0 Z " fill="#F3F3F3" transform="translate(642,804)"/>
<path d="M0 0 C2.64 0 5.28 0 8 0 C8.33 1.32 8.66 2.64 9 4 C5.85262818 3.30058404 2.97411124 2.23921302 0 1 C0 0.67 0 0.34 0 0 Z " fill="#C7C7C7" transform="translate(575,802)"/>
<path d="M0 0 C1.65 0.33 3.3 0.66 5 1 C5 1.99 5 2.98 5 4 C2.69 4 0.38 4 -2 4 C-1.34 2.68 -0.68 1.36 0 0 Z " fill="#C8C8C8" transform="translate(760,802)"/>
<path d="M0 0 C2.31 0.33 4.62 0.66 7 1 C7 2.32 7 3.64 7 5 C6.34 5 5.68 5 5 5 C4.67 4.34 4.34 3.68 4 3 C1.97536745 2.34786708 1.97536745 2.34786708 0 2 C0 1.34 0 0.68 0 0 Z " fill="#BEBEBE" transform="translate(558,802)"/>
<path d="M0 0 C0.33 0 0.66 0 1 0 C1 3.3 1 6.6 1 10 C0.01 9.01 -0.98 8.02 -2 7 C-1.56521739 1.56521739 -1.56521739 1.56521739 0 0 Z " fill="#E0E0E0" transform="translate(830,792)"/>
<path d="M0 0 C0.99 0.33 1.98 0.66 3 1 C3.33 2.65 3.66 4.3 4 6 C2.68 5.67 1.36 5.34 0 5 C0 3.35 0 1.7 0 0 Z " fill="#F7F7F7" transform="translate(849,804)"/>
</svg>
